<?xml version="1.0" encoding="UTF-8" standalone="no"?>
<!DOCTYPE svg PUBLIC "-//W3C//DTD SVG 1.1//EN"
 "http://www.w3.org/Graphics/SVG/1.1/DTD/svg11.dtd">
<!-- Generated by graphviz version 2.47.0 (20210316.0004)
 -->
<!-- Title: dependencies Pages: 1 -->
<svg width="504pt" height="211pt"
 viewBox="0.00 0.00 504.00 211.00" xmlns="http://www.w3.org/2000/svg" xmlns:xlink="http://www.w3.org/1999/xlink">
<g id="graph0" class="graph" transform="scale(1 1) rotate(0) translate(4 207)">
<title>dependencies</title>
<polygon fill="white" stroke="transparent" points="-4,4 -4,-207 500,-207 500,4 -4,4"/>
<text text-anchor="start" x="227.01" y="-42.4" font-family="Times-12" font-weight="bold" font-size="14.00">Legend</text>
<polygon fill="#ffffb3" stroke="transparent" points="14,-10 14,-30 34,-30 34,-10 14,-10"/>
<text text-anchor="start" x="37.63" y="-15.4" font-family="Times-12" font-size="14.00"> &#160;Declarations</text>
<polygon fill="#8dd3c7" stroke="transparent" points="127,-10 127,-30 147,-30 147,-10 127,-10"/>
<text text-anchor="start" x="150.73" y="-15.4" font-family="Times-12" font-size="14.00"> &#160;Module</text>
<polygon fill="#80b1d3" stroke="transparent" points="213,-10 213,-30 233,-30 233,-10 213,-10"/>
<text text-anchor="start" x="236.78" y="-15.4" font-family="Times-12" font-size="14.00"> &#160;Bootstrap</text>
<polygon fill="#fdb462" stroke="transparent" points="310,-10 310,-30 330,-30 330,-10 310,-10"/>
<text text-anchor="start" x="333.67" y="-15.4" font-family="Times-12" font-size="14.00"> &#160;Providers</text>
<polygon fill="#fb8072" stroke="transparent" points="406,-10 406,-30 426,-30 426,-10 406,-10"/>
<text text-anchor="start" x="429.73" y="-15.4" font-family="Times-12" font-size="14.00"> &#160;Exports</text>
<g id="clust1" class="cluster">
<title>cluster_SharedModule</title>
<polygon fill="none" stroke="black" stroke-dasharray="1,5" points="65,-70 65,-195 431,-195 431,-70 65,-70"/>
</g>
<g id="clust4" class="cluster">
<title>cluster_SharedModule_exports</title>
<polygon fill="none" stroke="black" points="73,-135 73,-187 423,-187 423,-135 73,-135"/>
</g>
<!-- LayoutModule  -->
<g id="node1" class="node">
<title>LayoutModule </title>
<polygon fill="#fb8072" stroke="black" points="415.21,-179 312.79,-179 312.79,-143 415.21,-143 415.21,-179"/>
<text text-anchor="middle" x="364" y="-156.8" font-family="Times,serif" font-size="14.00">LayoutModule </text>
</g>
<!-- NgImportModule  -->
<g id="node2" class="node">
<title>NgImportModule </title>
<polygon fill="#fb8072" stroke="black" points="295.26,-179 176.74,-179 176.74,-143 295.26,-143 295.26,-179"/>
<text text-anchor="middle" x="236" y="-156.8" font-family="Times,serif" font-size="14.00">NgImportModule </text>
</g>
<!-- UiModule  -->
<g id="node3" class="node">
<title>UiModule </title>
<polygon fill="#fb8072" stroke="black" points="158.55,-179 81.45,-179 81.45,-143 158.55,-143 158.55,-179"/>
<text text-anchor="middle" x="120" y="-156.8" font-family="Times,serif" font-size="14.00">UiModule </text>
</g>
<!-- SharedModule -->
<g id="node4" class="node">
<title>SharedModule</title>
<polygon fill="#8dd3c7" stroke="black" points="285.42,-114 282.42,-118 261.42,-118 258.42,-114 186.58,-114 186.58,-78 285.42,-78 285.42,-114"/>
<text text-anchor="middle" x="236" y="-91.8" font-family="Times,serif" font-size="14.00">SharedModule</text>
</g>
<!-- SharedModule&#45;&gt;LayoutModule  -->
<g id="edge1" class="edge">
<title>SharedModule&#45;&gt;LayoutModule </title>
<path fill="none" stroke="black" stroke-dasharray="5,2" d="M285.49,-96C321.51,-96 364,-96 364,-96 364,-96 364,-132.89 364,-132.89"/>
<polygon fill="black" stroke="black" points="360.5,-132.89 364,-142.89 367.5,-132.89 360.5,-132.89"/>
</g>
<!-- SharedModule&#45;&gt;NgImportModule  -->
<g id="edge2" class="edge">
<title>SharedModule&#45;&gt;NgImportModule </title>
<path fill="none" stroke="black" stroke-dasharray="5,2" d="M236,-114.11C236,-114.11 236,-132.99 236,-132.99"/>
<polygon fill="black" stroke="black" points="232.5,-132.99 236,-142.99 239.5,-132.99 232.5,-132.99"/>
</g>
<!-- SharedModule&#45;&gt;UiModule  -->
<g id="edge3" class="edge">
<title>SharedModule&#45;&gt;UiModule </title>
<path fill="none" stroke="black" stroke-dasharray="5,2" d="M186.47,-96C154.94,-96 120,-96 120,-96 120,-96 120,-132.89 120,-132.89"/>
<polygon fill="black" stroke="black" points="116.5,-132.89 120,-142.89 123.5,-132.89 116.5,-132.89"/>
</g>
</g>
</svg>
