<?xml version="1.0" encoding="UTF-8" standalone="no"?>
<!DOCTYPE svg PUBLIC "-//W3C//DTD SVG 1.1//EN"
 "http://www.w3.org/Graphics/SVG/1.1/DTD/svg11.dtd">
<!-- Generated by graphviz version 2.47.0 (20210316.0004)
 -->
<!-- Title: dependencies Pages: 1 -->
<svg width="539pt" height="284pt"
 viewBox="0.00 0.00 539.00 284.00" xmlns="http://www.w3.org/2000/svg" xmlns:xlink="http://www.w3.org/1999/xlink">
<g id="graph0" class="graph" transform="scale(1 1) rotate(0) translate(4 280)">
<title>dependencies</title>
<polygon fill="white" stroke="transparent" points="-4,4 -4,-280 535,-280 535,4 -4,4"/>
<text text-anchor="start" x="244.51" y="-42.4" font-family="Times-12" font-weight="bold" font-size="14.00">Legend</text>
<polygon fill="#ffffb3" stroke="transparent" points="31.5,-10 31.5,-30 51.5,-30 51.5,-10 31.5,-10"/>
<text text-anchor="start" x="55.13" y="-15.4" font-family="Times-12" font-size="14.00"> &#160;Declarations</text>
<polygon fill="#8dd3c7" stroke="transparent" points="144.5,-10 144.5,-30 164.5,-30 164.5,-10 144.5,-10"/>
<text text-anchor="start" x="168.23" y="-15.4" font-family="Times-12" font-size="14.00"> &#160;Module</text>
<polygon fill="#80b1d3" stroke="transparent" points="230.5,-10 230.5,-30 250.5,-30 250.5,-10 230.5,-10"/>
<text text-anchor="start" x="254.28" y="-15.4" font-family="Times-12" font-size="14.00"> &#160;Bootstrap</text>
<polygon fill="#fdb462" stroke="transparent" points="327.5,-10 327.5,-30 347.5,-30 347.5,-10 327.5,-10"/>
<text text-anchor="start" x="351.17" y="-15.4" font-family="Times-12" font-size="14.00"> &#160;Providers</text>
<polygon fill="#fb8072" stroke="transparent" points="423.5,-10 423.5,-30 443.5,-30 443.5,-10 423.5,-10"/>
<text text-anchor="start" x="447.23" y="-15.4" font-family="Times-12" font-size="14.00"> &#160;Exports</text>
<g id="clust1" class="cluster">
<title>cluster_UiModule</title>
<polygon fill="none" stroke="black" stroke-dasharray="1,5" points="8,-70 8,-268 523,-268 523,-70 8,-70"/>
</g>
<g id="clust7" class="cluster">
<title>cluster_UiModule_exports</title>
<polygon fill="none" stroke="black" points="16,-208 16,-260 515,-260 515,-208 16,-208"/>
</g>
<g id="clust2" class="cluster">
<title>cluster_UiModule_declarations</title>
<polygon fill="none" stroke="black" points="21,-78 21,-130 510,-130 510,-78 21,-78"/>
</g>
<!-- UiAppbarComponent -->
<g id="node1" class="node">
<title>UiAppbarComponent</title>
<polygon fill="#ffffb3" stroke="black" points="501.81,-122 364.19,-122 364.19,-86 501.81,-86 501.81,-122"/>
<text text-anchor="middle" x="433" y="-99.8" font-family="Times,serif" font-size="14.00">UiAppbarComponent</text>
</g>
<!-- UiModule -->
<g id="node4" class="node">
<title>UiModule</title>
<polygon fill="#8dd3c7" stroke="black" points="316.55,-187 313.55,-191 292.55,-191 289.55,-187 243.45,-187 243.45,-151 316.55,-151 316.55,-187"/>
<text text-anchor="middle" x="280" y="-164.8" font-family="Times,serif" font-size="14.00">UiModule</text>
</g>
<!-- UiAppbarComponent&#45;&gt;UiModule -->
<g id="edge1" class="edge">
<title>UiAppbarComponent&#45;&gt;UiModule</title>
<path fill="none" stroke="black" d="M456.64,-122.02C456.64,-139.37 456.64,-163 456.64,-163 456.64,-163 326.6,-163 326.6,-163"/>
<polygon fill="black" stroke="black" points="326.6,-159.5 316.6,-163 326.6,-166.5 326.6,-159.5"/>
</g>
<!-- UiButtonComponent -->
<g id="node2" class="node">
<title>UiButtonComponent</title>
<polygon fill="#ffffb3" stroke="black" points="346.95,-122 213.05,-122 213.05,-86 346.95,-86 346.95,-122"/>
<text text-anchor="middle" x="280" y="-99.8" font-family="Times,serif" font-size="14.00">UiButtonComponent</text>
</g>
<!-- UiButtonComponent&#45;&gt;UiModule -->
<g id="edge2" class="edge">
<title>UiButtonComponent&#45;&gt;UiModule</title>
<path fill="none" stroke="black" d="M280,-122.11C280,-122.11 280,-140.99 280,-140.99"/>
<polygon fill="black" stroke="black" points="276.5,-140.99 280,-150.99 283.5,-140.99 276.5,-140.99"/>
</g>
<!-- UiProductCardComponent -->
<g id="node3" class="node">
<title>UiProductCardComponent</title>
<polygon fill="#ffffb3" stroke="black" points="195.09,-122 28.91,-122 28.91,-86 195.09,-86 195.09,-122"/>
<text text-anchor="middle" x="112" y="-99.8" font-family="Times,serif" font-size="14.00">UiProductCardComponent</text>
</g>
<!-- UiProductCardComponent&#45;&gt;UiModule -->
<g id="edge3" class="edge">
<title>UiProductCardComponent&#45;&gt;UiModule</title>
<path fill="none" stroke="black" d="M138.85,-122.02C138.85,-139.37 138.85,-163 138.85,-163 138.85,-163 233.28,-163 233.28,-163"/>
<polygon fill="black" stroke="black" points="233.28,-166.5 243.28,-163 233.28,-159.5 233.28,-166.5"/>
</g>
<!-- UiAppbarComponent  -->
<g id="node5" class="node">
<title>UiAppbarComponent </title>
<polygon fill="#fb8072" stroke="black" points="507.31,-252 366.69,-252 366.69,-216 507.31,-216 507.31,-252"/>
<text text-anchor="middle" x="437" y="-229.8" font-family="Times,serif" font-size="14.00">UiAppbarComponent </text>
</g>
<!-- UiModule&#45;&gt;UiAppbarComponent  -->
<g id="edge4" class="edge">
<title>UiModule&#45;&gt;UiAppbarComponent </title>
<path fill="none" stroke="black" stroke-dasharray="5,2" d="M316.66,-175C355.61,-175 411.61,-175 411.61,-175 411.61,-175 411.61,-205.98 411.61,-205.98"/>
<polygon fill="black" stroke="black" points="408.11,-205.98 411.61,-215.98 415.11,-205.98 408.11,-205.98"/>
</g>
<!-- UiButtonComponent  -->
<g id="node6" class="node">
<title>UiButtonComponent </title>
<polygon fill="#fb8072" stroke="black" points="348.45,-252 211.55,-252 211.55,-216 348.45,-216 348.45,-252"/>
<text text-anchor="middle" x="280" y="-229.8" font-family="Times,serif" font-size="14.00">UiButtonComponent </text>
</g>
<!-- UiModule&#45;&gt;UiButtonComponent  -->
<g id="edge5" class="edge">
<title>UiModule&#45;&gt;UiButtonComponent </title>
<path fill="none" stroke="black" stroke-dasharray="5,2" d="M280,-187.11C280,-187.11 280,-205.99 280,-205.99"/>
<polygon fill="black" stroke="black" points="276.5,-205.99 280,-215.99 283.5,-205.99 276.5,-205.99"/>
</g>
<!-- UiProductCardComponent  -->
<g id="node7" class="node">
<title>UiProductCardComponent </title>
<polygon fill="#fb8072" stroke="black" points="193.59,-252 24.41,-252 24.41,-216 193.59,-216 193.59,-252"/>
<text text-anchor="middle" x="109" y="-229.8" font-family="Times,serif" font-size="14.00">UiProductCardComponent </text>
</g>
<!-- UiModule&#45;&gt;UiProductCardComponent  -->
<g id="edge6" class="edge">
<title>UiModule&#45;&gt;UiProductCardComponent </title>
<path fill="none" stroke="black" stroke-dasharray="5,2" d="M243.12,-175C186.31,-175 83.9,-175 83.9,-175 83.9,-175 83.9,-205.98 83.9,-205.98"/>
<polygon fill="black" stroke="black" points="80.4,-205.98 83.9,-215.98 87.4,-205.98 80.4,-205.98"/>
</g>
</g>
</svg>
