<?xml version="1.0" encoding="UTF-8" standalone="no"?>
<!DOCTYPE svg PUBLIC "-//W3C//DTD SVG 1.1//EN"
 "http://www.w3.org/Graphics/SVG/1.1/DTD/svg11.dtd">
<!-- Generated by graphviz version 2.47.0 (20210316.0004)
 -->
<!-- Title: dependencies Pages: 1 -->
<svg width="504pt" height="284pt"
 viewBox="0.00 0.00 504.00 284.00" xmlns="http://www.w3.org/2000/svg" xmlns:xlink="http://www.w3.org/1999/xlink">
<g id="graph0" class="graph" transform="scale(1 1) rotate(0) translate(4 280)">
<title>dependencies</title>
<polygon fill="white" stroke="transparent" points="-4,4 -4,-280 500,-280 500,4 -4,4"/>
<text text-anchor="start" x="227.01" y="-42.4" font-family="Times-12" font-weight="bold" font-size="14.00">Legend</text>
<polygon fill="#ffffb3" stroke="transparent" points="14,-10 14,-30 34,-30 34,-10 14,-10"/>
<text text-anchor="start" x="37.63" y="-15.4" font-family="Times-12" font-size="14.00"> &#160;Declarations</text>
<polygon fill="#8dd3c7" stroke="transparent" points="127,-10 127,-30 147,-30 147,-10 127,-10"/>
<text text-anchor="start" x="150.73" y="-15.4" font-family="Times-12" font-size="14.00"> &#160;Module</text>
<polygon fill="#80b1d3" stroke="transparent" points="213,-10 213,-30 233,-30 233,-10 213,-10"/>
<text text-anchor="start" x="236.78" y="-15.4" font-family="Times-12" font-size="14.00"> &#160;Bootstrap</text>
<polygon fill="#fdb462" stroke="transparent" points="310,-10 310,-30 330,-30 330,-10 310,-10"/>
<text text-anchor="start" x="333.67" y="-15.4" font-family="Times-12" font-size="14.00"> &#160;Providers</text>
<polygon fill="#fb8072" stroke="transparent" points="406,-10 406,-30 426,-30 426,-10 406,-10"/>
<text text-anchor="start" x="429.73" y="-15.4" font-family="Times-12" font-size="14.00"> &#160;Exports</text>
<g id="clust1" class="cluster">
<title>cluster_ViewAuthModule</title>
<polygon fill="none" stroke="black" stroke-dasharray="1,5" points="10.5,-70 10.5,-268 485.5,-268 485.5,-70 10.5,-70"/>
</g>
<g id="clust2" class="cluster">
<title>cluster_ViewAuthModule_declarations</title>
<polygon fill="none" stroke="black" points="321.5,-78 321.5,-130 477.5,-130 477.5,-78 321.5,-78"/>
</g>
<g id="clust4" class="cluster">
<title>cluster_ViewAuthModule_imports</title>
<polygon fill="none" stroke="black" points="18.5,-78 18.5,-130 313.5,-130 313.5,-78 18.5,-78"/>
</g>
<g id="clust5" class="cluster">
<title>cluster_ViewAuthModule_exports</title>
<polygon fill="none" stroke="black" points="176.5,-208 176.5,-260 336.5,-260 336.5,-208 176.5,-208"/>
</g>
<!-- ViewAuthComponent -->
<g id="node1" class="node">
<title>ViewAuthComponent</title>
<polygon fill="#ffffb3" stroke="black" points="469.15,-122 329.85,-122 329.85,-86 469.15,-86 469.15,-122"/>
<text text-anchor="middle" x="399.5" y="-99.8" font-family="Times,serif" font-size="14.00">ViewAuthComponent</text>
</g>
<!-- ViewAuthModule -->
<g id="node2" class="node">
<title>ViewAuthModule</title>
<polygon fill="#8dd3c7" stroke="black" points="315.37,-187 312.37,-191 291.37,-191 288.37,-187 197.63,-187 197.63,-151 315.37,-151 315.37,-187"/>
<text text-anchor="middle" x="256.5" y="-164.8" font-family="Times,serif" font-size="14.00">ViewAuthModule</text>
</g>
<!-- ViewAuthComponent&#45;&gt;ViewAuthModule -->
<g id="edge1" class="edge">
<title>ViewAuthComponent&#45;&gt;ViewAuthModule</title>
<path fill="none" stroke="black" d="M329.43,-104C318.41,-104 310.57,-104 310.57,-104 310.57,-104 310.57,-140.89 310.57,-140.89"/>
<polygon fill="black" stroke="black" points="307.07,-140.89 310.57,-150.89 314.07,-140.89 307.07,-140.89"/>
</g>
<!-- ViewAuthComponent  -->
<g id="node5" class="node">
<title>ViewAuthComponent </title>
<polygon fill="#fb8072" stroke="black" points="328.15,-252 184.85,-252 184.85,-216 328.15,-216 328.15,-252"/>
<text text-anchor="middle" x="256.5" y="-229.8" font-family="Times,serif" font-size="14.00">ViewAuthComponent </text>
</g>
<!-- ViewAuthModule&#45;&gt;ViewAuthComponent  -->
<g id="edge4" class="edge">
<title>ViewAuthModule&#45;&gt;ViewAuthComponent </title>
<path fill="none" stroke="black" stroke-dasharray="5,2" d="M256.5,-187.11C256.5,-187.11 256.5,-205.99 256.5,-205.99"/>
<polygon fill="black" stroke="black" points="253,-205.99 256.5,-215.99 260,-205.99 253,-205.99"/>
</g>
<!-- SharedModule -->
<g id="node3" class="node">
<title>SharedModule</title>
<polygon fill="#8dd3c7" stroke="black" points="305.92,-122 302.92,-126 281.92,-126 278.92,-122 207.08,-122 207.08,-86 305.92,-86 305.92,-122"/>
<text text-anchor="middle" x="256.5" y="-99.8" font-family="Times,serif" font-size="14.00">SharedModule</text>
</g>
<!-- SharedModule&#45;&gt;ViewAuthModule -->
<g id="edge2" class="edge">
<title>SharedModule&#45;&gt;ViewAuthModule</title>
<path fill="none" stroke="black" d="M256.5,-122.11C256.5,-122.11 256.5,-140.99 256.5,-140.99"/>
<polygon fill="black" stroke="black" points="253,-140.99 256.5,-150.99 260,-140.99 253,-140.99"/>
</g>
<!-- ViewAuthRoutingModule -->
<g id="node4" class="node">
<title>ViewAuthRoutingModule</title>
<polygon fill="#8dd3c7" stroke="black" points="188.98,-122 185.98,-126 164.98,-126 161.98,-122 26.02,-122 26.02,-86 188.98,-86 188.98,-122"/>
<text text-anchor="middle" x="107.5" y="-99.8" font-family="Times,serif" font-size="14.00">ViewAuthRoutingModule</text>
</g>
<!-- ViewAuthRoutingModule&#45;&gt;ViewAuthModule -->
<g id="edge3" class="edge">
<title>ViewAuthRoutingModule&#45;&gt;ViewAuthModule</title>
<path fill="none" stroke="black" d="M189.23,-104C197.21,-104 202.43,-104 202.43,-104 202.43,-104 202.43,-140.89 202.43,-140.89"/>
<polygon fill="black" stroke="black" points="198.93,-140.89 202.43,-150.89 205.93,-140.89 198.93,-140.89"/>
</g>
</g>
</svg>
