<?xml version="1.0" encoding="UTF-8" standalone="no"?>
<!DOCTYPE svg PUBLIC "-//W3C//DTD SVG 1.1//EN"
 "http://www.w3.org/Graphics/SVG/1.1/DTD/svg11.dtd">
<!-- Generated by graphviz version 2.47.0 (20210316.0004)
 -->
<!-- Title: dependencies Pages: 1 -->
<svg width="504pt" height="284pt"
 viewBox="0.00 0.00 504.00 284.00" xmlns="http://www.w3.org/2000/svg" xmlns:xlink="http://www.w3.org/1999/xlink">
<g id="graph0" class="graph" transform="scale(1 1) rotate(0) translate(4 280)">
<title>dependencies</title>
<polygon fill="white" stroke="transparent" points="-4,4 -4,-280 500,-280 500,4 -4,4"/>
<text text-anchor="start" x="227.01" y="-42.4" font-family="Times-12" font-weight="bold" font-size="14.00">Legend</text>
<polygon fill="#ffffb3" stroke="transparent" points="14,-10 14,-30 34,-30 34,-10 14,-10"/>
<text text-anchor="start" x="37.63" y="-15.4" font-family="Times-12" font-size="14.00"> &#160;Declarations</text>
<polygon fill="#8dd3c7" stroke="transparent" points="127,-10 127,-30 147,-30 147,-10 127,-10"/>
<text text-anchor="start" x="150.73" y="-15.4" font-family="Times-12" font-size="14.00"> &#160;Module</text>
<polygon fill="#80b1d3" stroke="transparent" points="213,-10 213,-30 233,-30 233,-10 213,-10"/>
<text text-anchor="start" x="236.78" y="-15.4" font-family="Times-12" font-size="14.00"> &#160;Bootstrap</text>
<polygon fill="#fdb462" stroke="transparent" points="310,-10 310,-30 330,-30 330,-10 310,-10"/>
<text text-anchor="start" x="333.67" y="-15.4" font-family="Times-12" font-size="14.00"> &#160;Providers</text>
<polygon fill="#fb8072" stroke="transparent" points="406,-10 406,-30 426,-30 426,-10 406,-10"/>
<text text-anchor="start" x="429.73" y="-15.4" font-family="Times-12" font-size="14.00"> &#160;Exports</text>
<g id="clust1" class="cluster">
<title>cluster_ViewAuthModule</title>
<polygon fill="none" stroke="black" stroke-dasharray="1,5" points="10.5,-70 10.5,-268 485.5,-268 485.5,-70 10.5,-70"/>
</g>
<g id="clust5" class="cluster">
<title>cluster_ViewAuthModule_exports</title>
<polygon fill="none" stroke="black" points="191.5,-208 191.5,-260 351.5,-260 351.5,-208 191.5,-208"/>
</g>
<g id="clust4" class="cluster">
<title>cluster_ViewAuthModule_imports</title>
<polygon fill="none" stroke="black" points="182.5,-78 182.5,-130 477.5,-130 477.5,-78 182.5,-78"/>
</g>
<g id="clust2" class="cluster">
<title>cluster_ViewAuthModule_declarations</title>
<polygon fill="none" stroke="black" points="18.5,-78 18.5,-130 174.5,-130 174.5,-78 18.5,-78"/>
</g>
<!-- ViewAuthComponent -->
<g id="node1" class="node">
<title>ViewAuthComponent</title>
<polygon fill="#ffffb3" stroke="black" points="166.15,-122 26.85,-122 26.85,-86 166.15,-86 166.15,-122"/>
<text text-anchor="middle" x="96.5" y="-99.8" font-family="Times,serif" font-size="14.00">ViewAuthComponent</text>
</g>
<!-- ViewAuthModule -->
<g id="node2" class="node">
<title>ViewAuthModule</title>
<polygon fill="#8dd3c7" stroke="black" points="330.37,-187 327.37,-191 306.37,-191 303.37,-187 212.63,-187 212.63,-151 330.37,-151 330.37,-187"/>
<text text-anchor="middle" x="271.5" y="-164.8" font-family="Times,serif" font-size="14.00">ViewAuthModule</text>
</g>
<!-- ViewAuthComponent&#45;&gt;ViewAuthModule -->
<g id="edge1" class="edge">
<title>ViewAuthComponent&#45;&gt;ViewAuthModule</title>
<path fill="none" stroke="black" d="M96.5,-122.11C96.5,-141.34 96.5,-169 96.5,-169 96.5,-169 202.25,-169 202.25,-169"/>
<polygon fill="black" stroke="black" points="202.25,-172.5 212.25,-169 202.25,-165.5 202.25,-172.5"/>
</g>
<!-- ViewAuthComponent  -->
<g id="node5" class="node">
<title>ViewAuthComponent </title>
<polygon fill="#fb8072" stroke="black" points="343.15,-252 199.85,-252 199.85,-216 343.15,-216 343.15,-252"/>
<text text-anchor="middle" x="271.5" y="-229.8" font-family="Times,serif" font-size="14.00">ViewAuthComponent </text>
</g>
<!-- ViewAuthModule&#45;&gt;ViewAuthComponent  -->
<g id="edge4" class="edge">
<title>ViewAuthModule&#45;&gt;ViewAuthComponent </title>
<path fill="none" stroke="black" stroke-dasharray="5,2" d="M271.5,-187.11C271.5,-187.11 271.5,-205.99 271.5,-205.99"/>
<polygon fill="black" stroke="black" points="268,-205.99 271.5,-215.99 275,-205.99 268,-205.99"/>
</g>
<!-- SharedModule -->
<g id="node3" class="node">
<title>SharedModule</title>
<polygon fill="#8dd3c7" stroke="black" points="469.92,-122 466.92,-126 445.92,-126 442.92,-122 371.08,-122 371.08,-86 469.92,-86 469.92,-122"/>
<text text-anchor="middle" x="420.5" y="-99.8" font-family="Times,serif" font-size="14.00">SharedModule</text>
</g>
<!-- SharedModule&#45;&gt;ViewAuthModule -->
<g id="edge2" class="edge">
<title>SharedModule&#45;&gt;ViewAuthModule</title>
<path fill="none" stroke="black" d="M420.5,-122.11C420.5,-141.34 420.5,-169 420.5,-169 420.5,-169 340.39,-169 340.39,-169"/>
<polygon fill="black" stroke="black" points="340.39,-165.5 330.39,-169 340.39,-172.5 340.39,-165.5"/>
</g>
<!-- ViewAuthRoutingModule -->
<g id="node4" class="node">
<title>ViewAuthRoutingModule</title>
<polygon fill="#8dd3c7" stroke="black" points="352.98,-122 349.98,-126 328.98,-126 325.98,-122 190.02,-122 190.02,-86 352.98,-86 352.98,-122"/>
<text text-anchor="middle" x="271.5" y="-99.8" font-family="Times,serif" font-size="14.00">ViewAuthRoutingModule</text>
</g>
<!-- ViewAuthRoutingModule&#45;&gt;ViewAuthModule -->
<g id="edge3" class="edge">
<title>ViewAuthRoutingModule&#45;&gt;ViewAuthModule</title>
<path fill="none" stroke="black" d="M271.5,-122.11C271.5,-122.11 271.5,-140.99 271.5,-140.99"/>
<polygon fill="black" stroke="black" points="268,-140.99 271.5,-150.99 275,-140.99 268,-140.99"/>
</g>
</g>
</svg>
