<?xml version="1.0" encoding="UTF-8" standalone="no"?>
<!DOCTYPE svg PUBLIC "-//W3C//DTD SVG 1.1//EN"
 "http://www.w3.org/Graphics/SVG/1.1/DTD/svg11.dtd">
<!-- Generated by graphviz version 2.47.0 (20210316.0004)
 -->
<!-- Title: dependencies Pages: 1 -->
<svg width="504pt" height="284pt"
 viewBox="0.00 0.00 504.00 284.00" xmlns="http://www.w3.org/2000/svg" xmlns:xlink="http://www.w3.org/1999/xlink">
<g id="graph0" class="graph" transform="scale(1 1) rotate(0) translate(4 280)">
<title>dependencies</title>
<polygon fill="white" stroke="transparent" points="-4,4 -4,-280 500,-280 500,4 -4,4"/>
<text text-anchor="start" x="227.01" y="-42.4" font-family="Times-12" font-weight="bold" font-size="14.00">Legend</text>
<polygon fill="#ffffb3" stroke="transparent" points="14,-10 14,-30 34,-30 34,-10 14,-10"/>
<text text-anchor="start" x="37.63" y="-15.4" font-family="Times-12" font-size="14.00"> &#160;Declarations</text>
<polygon fill="#8dd3c7" stroke="transparent" points="127,-10 127,-30 147,-30 147,-10 127,-10"/>
<text text-anchor="start" x="150.73" y="-15.4" font-family="Times-12" font-size="14.00"> &#160;Module</text>
<polygon fill="#80b1d3" stroke="transparent" points="213,-10 213,-30 233,-30 233,-10 213,-10"/>
<text text-anchor="start" x="236.78" y="-15.4" font-family="Times-12" font-size="14.00"> &#160;Bootstrap</text>
<polygon fill="#fdb462" stroke="transparent" points="310,-10 310,-30 330,-30 330,-10 310,-10"/>
<text text-anchor="start" x="333.67" y="-15.4" font-family="Times-12" font-size="14.00"> &#160;Providers</text>
<polygon fill="#fb8072" stroke="transparent" points="406,-10 406,-30 426,-30 426,-10 406,-10"/>
<text text-anchor="start" x="429.73" y="-15.4" font-family="Times-12" font-size="14.00"> &#160;Exports</text>
<g id="clust1" class="cluster">
<title>cluster_ViewAuthModule</title>
<polygon fill="none" stroke="black" stroke-dasharray="1,5" points="69,-70 69,-268 427,-268 427,-70 69,-70"/>
</g>
<g id="clust2" class="cluster">
<title>cluster_ViewAuthModule_declarations</title>
<polygon fill="none" stroke="black" points="263,-78 263,-130 419,-130 419,-78 263,-78"/>
</g>
<g id="clust5" class="cluster">
<title>cluster_ViewAuthModule_exports</title>
<polygon fill="none" stroke="black" points="172,-208 172,-260 332,-260 332,-208 172,-208"/>
</g>
<g id="clust4" class="cluster">
<title>cluster_ViewAuthModule_imports</title>
<polygon fill="none" stroke="black" points="77,-78 77,-130 255,-130 255,-78 77,-78"/>
</g>
<!-- ViewAuthComponent -->
<g id="node1" class="node">
<title>ViewAuthComponent</title>
<polygon fill="#ffffb3" stroke="black" points="410.65,-122 271.35,-122 271.35,-86 410.65,-86 410.65,-122"/>
<text text-anchor="middle" x="341" y="-99.8" font-family="Times,serif" font-size="14.00">ViewAuthComponent</text>
</g>
<!-- ViewAuthModule -->
<g id="node2" class="node">
<title>ViewAuthModule</title>
<polygon fill="#8dd3c7" stroke="black" points="310.87,-187 307.87,-191 286.87,-191 283.87,-187 193.13,-187 193.13,-151 310.87,-151 310.87,-187"/>
<text text-anchor="middle" x="252" y="-164.8" font-family="Times,serif" font-size="14.00">ViewAuthModule</text>
</g>
<!-- ViewAuthComponent&#45;&gt;ViewAuthModule -->
<g id="edge1" class="edge">
<title>ViewAuthComponent&#45;&gt;ViewAuthModule</title>
<path fill="none" stroke="black" d="M291.05,-122.11C291.05,-122.11 291.05,-140.99 291.05,-140.99"/>
<polygon fill="black" stroke="black" points="287.55,-140.99 291.05,-150.99 294.55,-140.99 287.55,-140.99"/>
</g>
<!-- ViewAuthComponent  -->
<g id="node4" class="node">
<title>ViewAuthComponent </title>
<polygon fill="#fb8072" stroke="black" points="323.65,-252 180.35,-252 180.35,-216 323.65,-216 323.65,-252"/>
<text text-anchor="middle" x="252" y="-229.8" font-family="Times,serif" font-size="14.00">ViewAuthComponent </text>
</g>
<!-- ViewAuthModule&#45;&gt;ViewAuthComponent  -->
<g id="edge3" class="edge">
<title>ViewAuthModule&#45;&gt;ViewAuthComponent </title>
<path fill="none" stroke="black" stroke-dasharray="5,2" d="M252,-187.11C252,-187.11 252,-205.99 252,-205.99"/>
<polygon fill="black" stroke="black" points="248.5,-205.99 252,-215.99 255.5,-205.99 248.5,-205.99"/>
</g>
<!-- ViewAuthRoutingModule -->
<g id="node3" class="node">
<title>ViewAuthRoutingModule</title>
<polygon fill="#8dd3c7" stroke="black" points="247.48,-122 244.48,-126 223.48,-126 220.48,-122 84.52,-122 84.52,-86 247.48,-86 247.48,-122"/>
<text text-anchor="middle" x="166" y="-99.8" font-family="Times,serif" font-size="14.00">ViewAuthRoutingModule</text>
</g>
<!-- ViewAuthRoutingModule&#45;&gt;ViewAuthModule -->
<g id="edge2" class="edge">
<title>ViewAuthRoutingModule&#45;&gt;ViewAuthModule</title>
<path fill="none" stroke="black" d="M220.28,-122.11C220.28,-122.11 220.28,-140.99 220.28,-140.99"/>
<polygon fill="black" stroke="black" points="216.78,-140.99 220.28,-150.99 223.78,-140.99 216.78,-140.99"/>
</g>
</g>
</svg>
