<?xml version="1.0" encoding="UTF-8" standalone="no"?>
<!DOCTYPE svg PUBLIC "-//W3C//DTD SVG 1.1//EN"
 "http://www.w3.org/Graphics/SVG/1.1/DTD/svg11.dtd">
<!-- Generated by graphviz version 2.47.0 (20210316.0004)
 -->
<!-- Title: dependencies Pages: 1 -->
<svg width="504pt" height="284pt"
 viewBox="0.00 0.00 504.00 284.00" xmlns="http://www.w3.org/2000/svg" xmlns:xlink="http://www.w3.org/1999/xlink">
<g id="graph0" class="graph" transform="scale(1 1) rotate(0) translate(4 280)">
<title>dependencies</title>
<polygon fill="white" stroke="transparent" points="-4,4 -4,-280 500,-280 500,4 -4,4"/>
<text text-anchor="start" x="227.01" y="-42.4" font-family="Times-12" font-weight="bold" font-size="14.00">Legend</text>
<polygon fill="#ffffb3" stroke="transparent" points="14,-10 14,-30 34,-30 34,-10 14,-10"/>
<text text-anchor="start" x="37.63" y="-15.4" font-family="Times-12" font-size="14.00"> &#160;Declarations</text>
<polygon fill="#8dd3c7" stroke="transparent" points="127,-10 127,-30 147,-30 147,-10 127,-10"/>
<text text-anchor="start" x="150.73" y="-15.4" font-family="Times-12" font-size="14.00"> &#160;Module</text>
<polygon fill="#80b1d3" stroke="transparent" points="213,-10 213,-30 233,-30 233,-10 213,-10"/>
<text text-anchor="start" x="236.78" y="-15.4" font-family="Times-12" font-size="14.00"> &#160;Bootstrap</text>
<polygon fill="#fdb462" stroke="transparent" points="310,-10 310,-30 330,-30 330,-10 310,-10"/>
<text text-anchor="start" x="333.67" y="-15.4" font-family="Times-12" font-size="14.00"> &#160;Providers</text>
<polygon fill="#fb8072" stroke="transparent" points="406,-10 406,-30 426,-30 426,-10 406,-10"/>
<text text-anchor="start" x="429.73" y="-15.4" font-family="Times-12" font-size="14.00"> &#160;Exports</text>
<g id="clust1" class="cluster">
<title>cluster_ViewAuthModule</title>
<polygon fill="none" stroke="black" stroke-dasharray="1,5" points="69,-70 69,-268 427,-268 427,-70 69,-70"/>
</g>
<g id="clust4" class="cluster">
<title>cluster_ViewAuthModule_imports</title>
<polygon fill="none" stroke="black" points="241,-78 241,-130 419,-130 419,-78 241,-78"/>
</g>
<g id="clust5" class="cluster">
<title>cluster_ViewAuthModule_exports</title>
<polygon fill="none" stroke="black" points="163,-208 163,-260 323,-260 323,-208 163,-208"/>
</g>
<g id="clust2" class="cluster">
<title>cluster_ViewAuthModule_declarations</title>
<polygon fill="none" stroke="black" points="77,-78 77,-130 233,-130 233,-78 77,-78"/>
</g>
<!-- ViewAuthComponent -->
<g id="node1" class="node">
<title>ViewAuthComponent</title>
<polygon fill="#ffffb3" stroke="black" points="224.65,-122 85.35,-122 85.35,-86 224.65,-86 224.65,-122"/>
<text text-anchor="middle" x="155" y="-99.8" font-family="Times,serif" font-size="14.00">ViewAuthComponent</text>
</g>
<!-- ViewAuthModule -->
<g id="node2" class="node">
<title>ViewAuthModule</title>
<polygon fill="#8dd3c7" stroke="black" points="301.87,-187 298.87,-191 277.87,-191 274.87,-187 184.13,-187 184.13,-151 301.87,-151 301.87,-187"/>
<text text-anchor="middle" x="243" y="-164.8" font-family="Times,serif" font-size="14.00">ViewAuthModule</text>
</g>
<!-- ViewAuthComponent&#45;&gt;ViewAuthModule -->
<g id="edge1" class="edge">
<title>ViewAuthComponent&#45;&gt;ViewAuthModule</title>
<path fill="none" stroke="black" d="M204.45,-122.11C204.45,-122.11 204.45,-140.99 204.45,-140.99"/>
<polygon fill="black" stroke="black" points="200.95,-140.99 204.45,-150.99 207.95,-140.99 200.95,-140.99"/>
</g>
<!-- ViewAuthComponent  -->
<g id="node4" class="node">
<title>ViewAuthComponent </title>
<polygon fill="#fb8072" stroke="black" points="314.65,-252 171.35,-252 171.35,-216 314.65,-216 314.65,-252"/>
<text text-anchor="middle" x="243" y="-229.8" font-family="Times,serif" font-size="14.00">ViewAuthComponent </text>
</g>
<!-- ViewAuthModule&#45;&gt;ViewAuthComponent  -->
<g id="edge3" class="edge">
<title>ViewAuthModule&#45;&gt;ViewAuthComponent </title>
<path fill="none" stroke="black" stroke-dasharray="5,2" d="M243,-187.11C243,-187.11 243,-205.99 243,-205.99"/>
<polygon fill="black" stroke="black" points="239.5,-205.99 243,-215.99 246.5,-205.99 239.5,-205.99"/>
</g>
<!-- ViewAuthRoutingModule -->
<g id="node3" class="node">
<title>ViewAuthRoutingModule</title>
<polygon fill="#8dd3c7" stroke="black" points="411.48,-122 408.48,-126 387.48,-126 384.48,-122 248.52,-122 248.52,-86 411.48,-86 411.48,-122"/>
<text text-anchor="middle" x="330" y="-99.8" font-family="Times,serif" font-size="14.00">ViewAuthRoutingModule</text>
</g>
<!-- ViewAuthRoutingModule&#45;&gt;ViewAuthModule -->
<g id="edge2" class="edge">
<title>ViewAuthRoutingModule&#45;&gt;ViewAuthModule</title>
<path fill="none" stroke="black" d="M275.22,-122.11C275.22,-122.11 275.22,-140.99 275.22,-140.99"/>
<polygon fill="black" stroke="black" points="271.72,-140.99 275.22,-150.99 278.72,-140.99 271.72,-140.99"/>
</g>
</g>
</svg>
