<?xml version="1.0" encoding="UTF-8" standalone="no"?>
<!DOCTYPE svg PUBLIC "-//W3C//DTD SVG 1.1//EN"
 "http://www.w3.org/Graphics/SVG/1.1/DTD/svg11.dtd">
<!-- Generated by graphviz version 2.47.0 (20210316.0004)
 -->
<!-- Title: dependencies Pages: 1 -->
<svg width="530pt" height="284pt"
 viewBox="0.00 0.00 530.00 284.00" xmlns="http://www.w3.org/2000/svg" xmlns:xlink="http://www.w3.org/1999/xlink">
<g id="graph0" class="graph" transform="scale(1 1) rotate(0) translate(4 280)">
<title>dependencies</title>
<polygon fill="white" stroke="transparent" points="-4,4 -4,-280 526,-280 526,4 -4,4"/>
<text text-anchor="start" x="240.01" y="-42.4" font-family="Times-12" font-weight="bold" font-size="14.00">Legend</text>
<polygon fill="#ffffb3" stroke="transparent" points="27,-10 27,-30 47,-30 47,-10 27,-10"/>
<text text-anchor="start" x="50.63" y="-15.4" font-family="Times-12" font-size="14.00"> &#160;Declarations</text>
<polygon fill="#8dd3c7" stroke="transparent" points="140,-10 140,-30 160,-30 160,-10 140,-10"/>
<text text-anchor="start" x="163.73" y="-15.4" font-family="Times-12" font-size="14.00"> &#160;Module</text>
<polygon fill="#80b1d3" stroke="transparent" points="226,-10 226,-30 246,-30 246,-10 226,-10"/>
<text text-anchor="start" x="249.78" y="-15.4" font-family="Times-12" font-size="14.00"> &#160;Bootstrap</text>
<polygon fill="#fdb462" stroke="transparent" points="323,-10 323,-30 343,-30 343,-10 323,-10"/>
<text text-anchor="start" x="346.67" y="-15.4" font-family="Times-12" font-size="14.00"> &#160;Providers</text>
<polygon fill="#fb8072" stroke="transparent" points="419,-10 419,-30 439,-30 439,-10 419,-10"/>
<text text-anchor="start" x="442.73" y="-15.4" font-family="Times-12" font-size="14.00"> &#160;Exports</text>
<g id="clust1" class="cluster">
<title>cluster_ViewProductModule</title>
<polygon fill="none" stroke="black" stroke-dasharray="1,5" points="8,-70 8,-268 514,-268 514,-70 8,-70"/>
</g>
<g id="clust2" class="cluster">
<title>cluster_ViewProductModule_declarations</title>
<polygon fill="none" stroke="black" points="334,-78 334,-130 506,-130 506,-78 334,-78"/>
</g>
<g id="clust4" class="cluster">
<title>cluster_ViewProductModule_imports</title>
<polygon fill="none" stroke="black" points="16,-78 16,-130 326,-130 326,-78 16,-78"/>
</g>
<g id="clust5" class="cluster">
<title>cluster_ViewProductModule_exports</title>
<polygon fill="none" stroke="black" points="182,-208 182,-260 356,-260 356,-208 182,-208"/>
</g>
<!-- ViewProductComponent -->
<g id="node1" class="node">
<title>ViewProductComponent</title>
<polygon fill="#ffffb3" stroke="black" points="497.7,-122 342.3,-122 342.3,-86 497.7,-86 497.7,-122"/>
<text text-anchor="middle" x="420" y="-99.8" font-family="Times,serif" font-size="14.00">ViewProductComponent</text>
</g>
<!-- ViewProductModule -->
<g id="node2" class="node">
<title>ViewProductModule</title>
<polygon fill="#8dd3c7" stroke="black" points="335.92,-187 332.92,-191 311.92,-191 308.92,-187 202.08,-187 202.08,-151 335.92,-151 335.92,-187"/>
<text text-anchor="middle" x="269" y="-164.8" font-family="Times,serif" font-size="14.00">ViewProductModule</text>
</g>
<!-- ViewProductComponent&#45;&gt;ViewProductModule -->
<g id="edge1" class="edge">
<title>ViewProductComponent&#45;&gt;ViewProductModule</title>
<path fill="none" stroke="black" d="M342.32,-104C333.14,-104 326.96,-104 326.96,-104 326.96,-104 326.96,-140.89 326.96,-140.89"/>
<polygon fill="black" stroke="black" points="323.46,-140.89 326.96,-150.89 330.46,-140.89 323.46,-140.89"/>
</g>
<!-- ViewProductComponent  -->
<g id="node5" class="node">
<title>ViewProductComponent </title>
<polygon fill="#fb8072" stroke="black" points="348.2,-252 189.8,-252 189.8,-216 348.2,-216 348.2,-252"/>
<text text-anchor="middle" x="269" y="-229.8" font-family="Times,serif" font-size="14.00">ViewProductComponent </text>
</g>
<!-- ViewProductModule&#45;&gt;ViewProductComponent  -->
<g id="edge4" class="edge">
<title>ViewProductModule&#45;&gt;ViewProductComponent </title>
<path fill="none" stroke="black" stroke-dasharray="5,2" d="M269,-187.11C269,-187.11 269,-205.99 269,-205.99"/>
<polygon fill="black" stroke="black" points="265.5,-205.99 269,-215.99 272.5,-205.99 265.5,-205.99"/>
</g>
<!-- SharedModule -->
<g id="node3" class="node">
<title>SharedModule</title>
<polygon fill="#8dd3c7" stroke="black" points="318.42,-122 315.42,-126 294.42,-126 291.42,-122 219.58,-122 219.58,-86 318.42,-86 318.42,-122"/>
<text text-anchor="middle" x="269" y="-99.8" font-family="Times,serif" font-size="14.00">SharedModule</text>
</g>
<!-- SharedModule&#45;&gt;ViewProductModule -->
<g id="edge2" class="edge">
<title>SharedModule&#45;&gt;ViewProductModule</title>
<path fill="none" stroke="black" d="M269,-122.11C269,-122.11 269,-140.99 269,-140.99"/>
<polygon fill="black" stroke="black" points="265.5,-140.99 269,-150.99 272.5,-140.99 265.5,-140.99"/>
</g>
<!-- ViewProductRoutingModule -->
<g id="node4" class="node">
<title>ViewProductRoutingModule</title>
<polygon fill="#8dd3c7" stroke="black" points="202.04,-122 199.04,-126 178.04,-126 175.04,-122 23.96,-122 23.96,-86 202.04,-86 202.04,-122"/>
<text text-anchor="middle" x="113" y="-99.8" font-family="Times,serif" font-size="14.00">ViewProductRoutingModule</text>
</g>
<!-- ViewProductRoutingModule&#45;&gt;ViewProductModule -->
<g id="edge3" class="edge">
<title>ViewProductRoutingModule&#45;&gt;ViewProductModule</title>
<path fill="none" stroke="black" d="M195.96,-122.11C195.96,-141.34 195.96,-169 195.96,-169 195.96,-169 196.58,-169 196.58,-169"/>
<polygon fill="black" stroke="black" points="192.19,-172.5 202.19,-169 192.19,-165.5 192.19,-172.5"/>
</g>
</g>
</svg>
