<?xml version="1.0" encoding="UTF-8" standalone="no"?>
<!DOCTYPE svg PUBLIC "-//W3C//DTD SVG 1.1//EN"
 "http://www.w3.org/Graphics/SVG/1.1/DTD/svg11.dtd">
<!-- Generated by graphviz version 2.47.0 (20210316.0004)
 -->
<!-- Title: dependencies Pages: 1 -->
<svg width="530pt" height="284pt"
 viewBox="0.00 0.00 530.00 284.00" xmlns="http://www.w3.org/2000/svg" xmlns:xlink="http://www.w3.org/1999/xlink">
<g id="graph0" class="graph" transform="scale(1 1) rotate(0) translate(4 280)">
<title>dependencies</title>
<polygon fill="white" stroke="transparent" points="-4,4 -4,-280 526,-280 526,4 -4,4"/>
<text text-anchor="start" x="240.01" y="-42.4" font-family="Times-12" font-weight="bold" font-size="14.00">Legend</text>
<polygon fill="#ffffb3" stroke="transparent" points="27,-10 27,-30 47,-30 47,-10 27,-10"/>
<text text-anchor="start" x="50.63" y="-15.4" font-family="Times-12" font-size="14.00"> &#160;Declarations</text>
<polygon fill="#8dd3c7" stroke="transparent" points="140,-10 140,-30 160,-30 160,-10 140,-10"/>
<text text-anchor="start" x="163.73" y="-15.4" font-family="Times-12" font-size="14.00"> &#160;Module</text>
<polygon fill="#80b1d3" stroke="transparent" points="226,-10 226,-30 246,-30 246,-10 226,-10"/>
<text text-anchor="start" x="249.78" y="-15.4" font-family="Times-12" font-size="14.00"> &#160;Bootstrap</text>
<polygon fill="#fdb462" stroke="transparent" points="323,-10 323,-30 343,-30 343,-10 323,-10"/>
<text text-anchor="start" x="346.67" y="-15.4" font-family="Times-12" font-size="14.00"> &#160;Providers</text>
<polygon fill="#fb8072" stroke="transparent" points="419,-10 419,-30 439,-30 439,-10 419,-10"/>
<text text-anchor="start" x="442.73" y="-15.4" font-family="Times-12" font-size="14.00"> &#160;Exports</text>
<g id="clust1" class="cluster">
<title>cluster_ViewProductModule</title>
<polygon fill="none" stroke="black" stroke-dasharray="1,5" points="8,-70 8,-268 514,-268 514,-70 8,-70"/>
</g>
<g id="clust4" class="cluster">
<title>cluster_ViewProductModule_imports</title>
<polygon fill="none" stroke="black" points="196,-78 196,-130 506,-130 506,-78 196,-78"/>
</g>
<g id="clust2" class="cluster">
<title>cluster_ViewProductModule_declarations</title>
<polygon fill="none" stroke="black" points="16,-78 16,-130 188,-130 188,-78 16,-78"/>
</g>
<g id="clust5" class="cluster">
<title>cluster_ViewProductModule_exports</title>
<polygon fill="none" stroke="black" points="206,-208 206,-260 380,-260 380,-208 206,-208"/>
</g>
<!-- ViewProductComponent -->
<g id="node1" class="node">
<title>ViewProductComponent</title>
<polygon fill="#ffffb3" stroke="black" points="179.7,-122 24.3,-122 24.3,-86 179.7,-86 179.7,-122"/>
<text text-anchor="middle" x="102" y="-99.8" font-family="Times,serif" font-size="14.00">ViewProductComponent</text>
</g>
<!-- ViewProductModule -->
<g id="node2" class="node">
<title>ViewProductModule</title>
<polygon fill="#8dd3c7" stroke="black" points="359.92,-187 356.92,-191 335.92,-191 332.92,-187 226.08,-187 226.08,-151 359.92,-151 359.92,-187"/>
<text text-anchor="middle" x="293" y="-164.8" font-family="Times,serif" font-size="14.00">ViewProductModule</text>
</g>
<!-- ViewProductComponent&#45;&gt;ViewProductModule -->
<g id="edge1" class="edge">
<title>ViewProductComponent&#45;&gt;ViewProductModule</title>
<path fill="none" stroke="black" d="M102,-122.11C102,-141.34 102,-169 102,-169 102,-169 216.2,-169 216.2,-169"/>
<polygon fill="black" stroke="black" points="216.2,-172.5 226.2,-169 216.2,-165.5 216.2,-172.5"/>
</g>
<!-- ViewProductComponent  -->
<g id="node5" class="node">
<title>ViewProductComponent </title>
<polygon fill="#fb8072" stroke="black" points="372.2,-252 213.8,-252 213.8,-216 372.2,-216 372.2,-252"/>
<text text-anchor="middle" x="293" y="-229.8" font-family="Times,serif" font-size="14.00">ViewProductComponent </text>
</g>
<!-- ViewProductModule&#45;&gt;ViewProductComponent  -->
<g id="edge4" class="edge">
<title>ViewProductModule&#45;&gt;ViewProductComponent </title>
<path fill="none" stroke="black" stroke-dasharray="5,2" d="M293,-187.11C293,-187.11 293,-205.99 293,-205.99"/>
<polygon fill="black" stroke="black" points="289.5,-205.99 293,-215.99 296.5,-205.99 289.5,-205.99"/>
</g>
<!-- SharedModule -->
<g id="node3" class="node">
<title>SharedModule</title>
<polygon fill="#8dd3c7" stroke="black" points="498.42,-122 495.42,-126 474.42,-126 471.42,-122 399.58,-122 399.58,-86 498.42,-86 498.42,-122"/>
<text text-anchor="middle" x="449" y="-99.8" font-family="Times,serif" font-size="14.00">SharedModule</text>
</g>
<!-- SharedModule&#45;&gt;ViewProductModule -->
<g id="edge2" class="edge">
<title>SharedModule&#45;&gt;ViewProductModule</title>
<path fill="none" stroke="black" d="M449,-122.11C449,-141.34 449,-169 449,-169 449,-169 370.06,-169 370.06,-169"/>
<polygon fill="black" stroke="black" points="370.06,-165.5 360.06,-169 370.06,-172.5 370.06,-165.5"/>
</g>
<!-- ViewProductRoutingModule -->
<g id="node4" class="node">
<title>ViewProductRoutingModule</title>
<polygon fill="#8dd3c7" stroke="black" points="382.04,-122 379.04,-126 358.04,-126 355.04,-122 203.96,-122 203.96,-86 382.04,-86 382.04,-122"/>
<text text-anchor="middle" x="293" y="-99.8" font-family="Times,serif" font-size="14.00">ViewProductRoutingModule</text>
</g>
<!-- ViewProductRoutingModule&#45;&gt;ViewProductModule -->
<g id="edge3" class="edge">
<title>ViewProductRoutingModule&#45;&gt;ViewProductModule</title>
<path fill="none" stroke="black" d="M293,-122.11C293,-122.11 293,-140.99 293,-140.99"/>
<polygon fill="black" stroke="black" points="289.5,-140.99 293,-150.99 296.5,-140.99 289.5,-140.99"/>
</g>
</g>
</svg>
