<?xml version="1.0" encoding="UTF-8" standalone="no"?>
<!DOCTYPE svg PUBLIC "-//W3C//DTD SVG 1.1//EN"
 "http://www.w3.org/Graphics/SVG/1.1/DTD/svg11.dtd">
<!-- Generated by graphviz version 2.47.0 (20210316.0004)
 -->
<!-- Title: dependencies Pages: 1 -->
<svg width="504pt" height="284pt"
 viewBox="0.00 0.00 504.00 284.00" xmlns="http://www.w3.org/2000/svg" xmlns:xlink="http://www.w3.org/1999/xlink">
<g id="graph0" class="graph" transform="scale(1 1) rotate(0) translate(4 280)">
<title>dependencies</title>
<polygon fill="white" stroke="transparent" points="-4,4 -4,-280 500,-280 500,4 -4,4"/>
<text text-anchor="start" x="227.01" y="-42.4" font-family="Times-12" font-weight="bold" font-size="14.00">Legend</text>
<polygon fill="#ffffb3" stroke="transparent" points="14,-10 14,-30 34,-30 34,-10 14,-10"/>
<text text-anchor="start" x="37.63" y="-15.4" font-family="Times-12" font-size="14.00"> &#160;Declarations</text>
<polygon fill="#8dd3c7" stroke="transparent" points="127,-10 127,-30 147,-30 147,-10 127,-10"/>
<text text-anchor="start" x="150.73" y="-15.4" font-family="Times-12" font-size="14.00"> &#160;Module</text>
<polygon fill="#80b1d3" stroke="transparent" points="213,-10 213,-30 233,-30 233,-10 213,-10"/>
<text text-anchor="start" x="236.78" y="-15.4" font-family="Times-12" font-size="14.00"> &#160;Bootstrap</text>
<polygon fill="#fdb462" stroke="transparent" points="310,-10 310,-30 330,-30 330,-10 310,-10"/>
<text text-anchor="start" x="333.67" y="-15.4" font-family="Times-12" font-size="14.00"> &#160;Providers</text>
<polygon fill="#fb8072" stroke="transparent" points="406,-10 406,-30 426,-30 426,-10 406,-10"/>
<text text-anchor="start" x="429.73" y="-15.4" font-family="Times-12" font-size="14.00"> &#160;Exports</text>
<g id="clust1" class="cluster">
<title>cluster_ViewProductModule</title>
<polygon fill="none" stroke="black" stroke-dasharray="1,5" points="53,-70 53,-268 443,-268 443,-70 53,-70"/>
</g>
<g id="clust4" class="cluster">
<title>cluster_ViewProductModule_imports</title>
<polygon fill="none" stroke="black" points="241,-78 241,-130 435,-130 435,-78 241,-78"/>
</g>
<g id="clust2" class="cluster">
<title>cluster_ViewProductModule_declarations</title>
<polygon fill="none" stroke="black" points="61,-78 61,-130 233,-130 233,-78 61,-78"/>
</g>
<g id="clust5" class="cluster">
<title>cluster_ViewProductModule_exports</title>
<polygon fill="none" stroke="black" points="156,-208 156,-260 330,-260 330,-208 156,-208"/>
</g>
<!-- ViewProductComponent -->
<g id="node1" class="node">
<title>ViewProductComponent</title>
<polygon fill="#ffffb3" stroke="black" points="224.7,-122 69.3,-122 69.3,-86 224.7,-86 224.7,-122"/>
<text text-anchor="middle" x="147" y="-99.8" font-family="Times,serif" font-size="14.00">ViewProductComponent</text>
</g>
<!-- ViewProductModule -->
<g id="node2" class="node">
<title>ViewProductModule</title>
<polygon fill="#8dd3c7" stroke="black" points="309.92,-187 306.92,-191 285.92,-191 282.92,-187 176.08,-187 176.08,-151 309.92,-151 309.92,-187"/>
<text text-anchor="middle" x="243" y="-164.8" font-family="Times,serif" font-size="14.00">ViewProductModule</text>
</g>
<!-- ViewProductComponent&#45;&gt;ViewProductModule -->
<g id="edge1" class="edge">
<title>ViewProductComponent&#45;&gt;ViewProductModule</title>
<path fill="none" stroke="black" d="M200.45,-122.11C200.45,-122.11 200.45,-140.99 200.45,-140.99"/>
<polygon fill="black" stroke="black" points="196.95,-140.99 200.45,-150.99 203.95,-140.99 196.95,-140.99"/>
</g>
<!-- ViewProductComponent  -->
<g id="node4" class="node">
<title>ViewProductComponent </title>
<polygon fill="#fb8072" stroke="black" points="322.2,-252 163.8,-252 163.8,-216 322.2,-216 322.2,-252"/>
<text text-anchor="middle" x="243" y="-229.8" font-family="Times,serif" font-size="14.00">ViewProductComponent </text>
</g>
<!-- ViewProductModule&#45;&gt;ViewProductComponent  -->
<g id="edge3" class="edge">
<title>ViewProductModule&#45;&gt;ViewProductComponent </title>
<path fill="none" stroke="black" stroke-dasharray="5,2" d="M243,-187.11C243,-187.11 243,-205.99 243,-205.99"/>
<polygon fill="black" stroke="black" points="239.5,-205.99 243,-215.99 246.5,-205.99 239.5,-205.99"/>
</g>
<!-- ViewProductRoutingModule -->
<g id="node3" class="node">
<title>ViewProductRoutingModule</title>
<polygon fill="#8dd3c7" stroke="black" points="427.04,-122 424.04,-126 403.04,-126 400.04,-122 248.96,-122 248.96,-86 427.04,-86 427.04,-122"/>
<text text-anchor="middle" x="338" y="-99.8" font-family="Times,serif" font-size="14.00">ViewProductRoutingModule</text>
</g>
<!-- ViewProductRoutingModule&#45;&gt;ViewProductModule -->
<g id="edge2" class="edge">
<title>ViewProductRoutingModule&#45;&gt;ViewProductModule</title>
<path fill="none" stroke="black" d="M279.22,-122.11C279.22,-122.11 279.22,-140.99 279.22,-140.99"/>
<polygon fill="black" stroke="black" points="275.72,-140.99 279.22,-150.99 282.72,-140.99 275.72,-140.99"/>
</g>
</g>
</svg>
