<?xml version="1.0" encoding="UTF-8" standalone="no"?>
<!DOCTYPE svg PUBLIC "-//W3C//DTD SVG 1.1//EN"
 "http://www.w3.org/Graphics/SVG/1.1/DTD/svg11.dtd">
<!-- Generated by graphviz version 2.47.0 (20210316.0004)
 -->
<!-- Title: dependencies Pages: 1 -->
<svg width="939pt" height="284pt"
 viewBox="0.00 0.00 939.00 284.00" xmlns="http://www.w3.org/2000/svg" xmlns:xlink="http://www.w3.org/1999/xlink">
<g id="graph0" class="graph" transform="scale(1 1) rotate(0) translate(4 280)">
<title>dependencies</title>
<polygon fill="white" stroke="transparent" points="-4,4 -4,-280 935,-280 935,4 -4,4"/>
<text text-anchor="start" x="444.51" y="-42.4" font-family="Times-12" font-weight="bold" font-size="14.00">Legend</text>
<polygon fill="#ffffb3" stroke="transparent" points="231.5,-10 231.5,-30 251.5,-30 251.5,-10 231.5,-10"/>
<text text-anchor="start" x="255.13" y="-15.4" font-family="Times-12" font-size="14.00"> &#160;Declarations</text>
<polygon fill="#8dd3c7" stroke="transparent" points="344.5,-10 344.5,-30 364.5,-30 364.5,-10 344.5,-10"/>
<text text-anchor="start" x="368.23" y="-15.4" font-family="Times-12" font-size="14.00"> &#160;Module</text>
<polygon fill="#80b1d3" stroke="transparent" points="430.5,-10 430.5,-30 450.5,-30 450.5,-10 430.5,-10"/>
<text text-anchor="start" x="454.28" y="-15.4" font-family="Times-12" font-size="14.00"> &#160;Bootstrap</text>
<polygon fill="#fdb462" stroke="transparent" points="527.5,-10 527.5,-30 547.5,-30 547.5,-10 527.5,-10"/>
<text text-anchor="start" x="551.17" y="-15.4" font-family="Times-12" font-size="14.00"> &#160;Providers</text>
<polygon fill="#fb8072" stroke="transparent" points="623.5,-10 623.5,-30 643.5,-30 643.5,-10 623.5,-10"/>
<text text-anchor="start" x="647.23" y="-15.4" font-family="Times-12" font-size="14.00"> &#160;Exports</text>
<g id="clust1" class="cluster">
<title>cluster_AppModule</title>
<polygon fill="none" stroke="black" stroke-dasharray="1,5" points="8,-70 8,-268 923,-268 923,-70 8,-70"/>
</g>
<g id="clust6" class="cluster">
<title>cluster_AppModule_bootstrap</title>
<polygon fill="none" stroke="black" points="406,-208 406,-260 530,-260 530,-208 406,-208"/>
</g>
<g id="clust4" class="cluster">
<title>cluster_AppModule_imports</title>
<polygon fill="none" stroke="black" points="146,-78 146,-130 915,-130 915,-78 146,-78"/>
</g>
<g id="clust2" class="cluster">
<title>cluster_AppModule_declarations</title>
<polygon fill="none" stroke="black" points="16,-78 16,-130 138,-130 138,-78 16,-78"/>
</g>
<!-- AppComponent -->
<g id="node1" class="node">
<title>AppComponent</title>
<polygon fill="#ffffb3" stroke="black" points="129.94,-122 24.06,-122 24.06,-86 129.94,-86 129.94,-122"/>
<text text-anchor="middle" x="77" y="-99.8" font-family="Times,serif" font-size="14.00">AppComponent</text>
</g>
<!-- AppModule -->
<g id="node2" class="node">
<title>AppModule</title>
<polygon fill="#8dd3c7" stroke="black" points="509.66,-187 506.66,-191 485.66,-191 482.66,-187 426.34,-187 426.34,-151 509.66,-151 509.66,-187"/>
<text text-anchor="middle" x="468" y="-164.8" font-family="Times,serif" font-size="14.00">AppModule</text>
</g>
<!-- AppComponent&#45;&gt;AppModule -->
<g id="edge1" class="edge">
<title>AppComponent&#45;&gt;AppModule</title>
<path fill="none" stroke="black" d="M77,-122.28C77,-143.32 77,-175 77,-175 77,-175 416.16,-175 416.16,-175"/>
<polygon fill="black" stroke="black" points="416.16,-178.5 426.16,-175 416.16,-171.5 416.16,-178.5"/>
</g>
<!-- AppComponent  -->
<g id="node8" class="node">
<title>AppComponent </title>
<polygon fill="#80b1d3" stroke="black" points="522.44,-252 413.56,-252 413.56,-216 522.44,-216 522.44,-252"/>
<text text-anchor="middle" x="468" y="-229.8" font-family="Times,serif" font-size="14.00">AppComponent </text>
</g>
<!-- AppModule&#45;&gt;AppComponent  -->
<g id="edge7" class="edge">
<title>AppModule&#45;&gt;AppComponent </title>
<path fill="none" stroke="black" stroke-dasharray="1,5" d="M468,-187.11C468,-187.11 468,-205.99 468,-205.99"/>
<polygon fill="black" stroke="black" points="464.5,-205.99 468,-215.99 471.5,-205.99 464.5,-205.99"/>
</g>
<!-- AppRoutingModule -->
<g id="node3" class="node">
<title>AppRoutingModule</title>
<polygon fill="#8dd3c7" stroke="black" points="907.27,-122 904.27,-126 883.27,-126 880.27,-122 778.73,-122 778.73,-86 907.27,-86 907.27,-122"/>
<text text-anchor="middle" x="843" y="-99.8" font-family="Times,serif" font-size="14.00">AppRoutingModule</text>
</g>
<!-- AppRoutingModule&#45;&gt;AppModule -->
<g id="edge2" class="edge">
<title>AppRoutingModule&#45;&gt;AppModule</title>
<path fill="none" stroke="black" d="M843,-122.28C843,-143.32 843,-175 843,-175 843,-175 519.93,-175 519.93,-175"/>
<polygon fill="black" stroke="black" points="519.93,-171.5 509.93,-175 519.93,-178.5 519.93,-171.5"/>
</g>
<!-- ViewAuthModule -->
<g id="node4" class="node">
<title>ViewAuthModule</title>
<polygon fill="#8dd3c7" stroke="black" points="760.87,-122 757.87,-126 736.87,-126 733.87,-122 643.13,-122 643.13,-86 760.87,-86 760.87,-122"/>
<text text-anchor="middle" x="702" y="-99.8" font-family="Times,serif" font-size="14.00">ViewAuthModule</text>
</g>
<!-- ViewAuthModule&#45;&gt;AppModule -->
<g id="edge3" class="edge">
<title>ViewAuthModule&#45;&gt;AppModule</title>
<path fill="none" stroke="black" d="M702,-122.02C702,-139.37 702,-163 702,-163 702,-163 519.83,-163 519.83,-163"/>
<polygon fill="black" stroke="black" points="519.83,-159.5 509.83,-163 519.83,-166.5 519.83,-159.5"/>
</g>
<!-- ViewMessagesModule -->
<g id="node5" class="node">
<title>ViewMessagesModule</title>
<polygon fill="#8dd3c7" stroke="black" points="625.29,-122 622.29,-126 601.29,-126 598.29,-122 480.71,-122 480.71,-86 625.29,-86 625.29,-122"/>
<text text-anchor="middle" x="553" y="-99.8" font-family="Times,serif" font-size="14.00">ViewMessagesModule</text>
</g>
<!-- ViewMessagesModule&#45;&gt;AppModule -->
<g id="edge4" class="edge">
<title>ViewMessagesModule&#45;&gt;AppModule</title>
<path fill="none" stroke="black" d="M495.34,-122.11C495.34,-122.11 495.34,-140.99 495.34,-140.99"/>
<polygon fill="black" stroke="black" points="491.84,-140.99 495.34,-150.99 498.84,-140.99 491.84,-140.99"/>
</g>
<!-- ViewNotificationModule -->
<g id="node6" class="node">
<title>ViewNotificationModule</title>
<polygon fill="#8dd3c7" stroke="black" points="462.52,-122 459.52,-126 438.52,-126 435.52,-122 305.48,-122 305.48,-86 462.52,-86 462.52,-122"/>
<text text-anchor="middle" x="384" y="-99.8" font-family="Times,serif" font-size="14.00">ViewNotificationModule</text>
</g>
<!-- ViewNotificationModule&#45;&gt;AppModule -->
<g id="edge5" class="edge">
<title>ViewNotificationModule&#45;&gt;AppModule</title>
<path fill="none" stroke="black" d="M444.47,-122.11C444.47,-122.11 444.47,-140.99 444.47,-140.99"/>
<polygon fill="black" stroke="black" points="440.97,-140.99 444.47,-150.99 447.97,-140.99 440.97,-140.99"/>
</g>
<!-- ViewProductModule -->
<g id="node7" class="node">
<title>ViewProductModule</title>
<polygon fill="#8dd3c7" stroke="black" points="287.92,-122 284.92,-126 263.92,-126 260.92,-122 154.08,-122 154.08,-86 287.92,-86 287.92,-122"/>
<text text-anchor="middle" x="221" y="-99.8" font-family="Times,serif" font-size="14.00">ViewProductModule</text>
</g>
<!-- ViewProductModule&#45;&gt;AppModule -->
<g id="edge6" class="edge">
<title>ViewProductModule&#45;&gt;AppModule</title>
<path fill="none" stroke="black" d="M221,-122.02C221,-139.37 221,-163 221,-163 221,-163 416.1,-163 416.1,-163"/>
<polygon fill="black" stroke="black" points="416.1,-166.5 426.1,-163 416.1,-159.5 416.1,-166.5"/>
</g>
</g>
</svg>
