<?xml version="1.0" encoding="UTF-8" standalone="no"?>
<!DOCTYPE svg PUBLIC "-//W3C//DTD SVG 1.1//EN"
 "http://www.w3.org/Graphics/SVG/1.1/DTD/svg11.dtd">
<!-- Generated by graphviz version 2.47.0 (20210316.0004)
 -->
<!-- Title: dependencies Pages: 1 -->
<svg width="1161pt" height="284pt"
 viewBox="0.00 0.00 1161.00 284.00" xmlns="http://www.w3.org/2000/svg" xmlns:xlink="http://www.w3.org/1999/xlink">
<g id="graph0" class="graph" transform="scale(1 1) rotate(0) translate(4 280)">
<title>dependencies</title>
<polygon fill="white" stroke="transparent" points="-4,4 -4,-280 1157,-280 1157,4 -4,4"/>
<text text-anchor="start" x="555.51" y="-42.4" font-family="Times-12" font-weight="bold" font-size="14.00">Legend</text>
<polygon fill="#ffffb3" stroke="transparent" points="342.5,-10 342.5,-30 362.5,-30 362.5,-10 342.5,-10"/>
<text text-anchor="start" x="366.13" y="-15.4" font-family="Times-12" font-size="14.00"> &#160;Declarations</text>
<polygon fill="#8dd3c7" stroke="transparent" points="455.5,-10 455.5,-30 475.5,-30 475.5,-10 455.5,-10"/>
<text text-anchor="start" x="479.23" y="-15.4" font-family="Times-12" font-size="14.00"> &#160;Module</text>
<polygon fill="#80b1d3" stroke="transparent" points="541.5,-10 541.5,-30 561.5,-30 561.5,-10 541.5,-10"/>
<text text-anchor="start" x="565.28" y="-15.4" font-family="Times-12" font-size="14.00"> &#160;Bootstrap</text>
<polygon fill="#fdb462" stroke="transparent" points="638.5,-10 638.5,-30 658.5,-30 658.5,-10 638.5,-10"/>
<text text-anchor="start" x="662.17" y="-15.4" font-family="Times-12" font-size="14.00"> &#160;Providers</text>
<polygon fill="#fb8072" stroke="transparent" points="734.5,-10 734.5,-30 754.5,-30 754.5,-10 734.5,-10"/>
<text text-anchor="start" x="758.23" y="-15.4" font-family="Times-12" font-size="14.00"> &#160;Exports</text>
<g id="clust1" class="cluster">
<title>cluster_AppModule</title>
<polygon fill="none" stroke="black" stroke-dasharray="1,5" points="8,-70 8,-268 1145,-268 1145,-70 8,-70"/>
</g>
<g id="clust2" class="cluster">
<title>cluster_AppModule_declarations</title>
<polygon fill="none" stroke="black" points="1015,-78 1015,-130 1137,-130 1137,-78 1015,-78"/>
</g>
<g id="clust4" class="cluster">
<title>cluster_AppModule_imports</title>
<polygon fill="none" stroke="black" points="16,-78 16,-130 1007,-130 1007,-78 16,-78"/>
</g>
<g id="clust6" class="cluster">
<title>cluster_AppModule_bootstrap</title>
<polygon fill="none" stroke="black" points="573,-208 573,-260 697,-260 697,-208 573,-208"/>
</g>
<!-- AppComponent -->
<g id="node1" class="node">
<title>AppComponent</title>
<polygon fill="#ffffb3" stroke="black" points="1128.94,-122 1023.06,-122 1023.06,-86 1128.94,-86 1128.94,-122"/>
<text text-anchor="middle" x="1076" y="-99.8" font-family="Times,serif" font-size="14.00">AppComponent</text>
</g>
<!-- AppModule -->
<g id="node2" class="node">
<title>AppModule</title>
<polygon fill="#8dd3c7" stroke="black" points="676.66,-187 673.66,-191 652.66,-191 649.66,-187 593.34,-187 593.34,-151 676.66,-151 676.66,-187"/>
<text text-anchor="middle" x="635" y="-164.8" font-family="Times,serif" font-size="14.00">AppModule</text>
</g>
<!-- AppComponent&#45;&gt;AppModule -->
<g id="edge1" class="edge">
<title>AppComponent&#45;&gt;AppModule</title>
<path fill="none" stroke="black" d="M1076,-122.29C1076,-144.21 1076,-178 1076,-178 1076,-178 686.89,-178 686.89,-178"/>
<polygon fill="black" stroke="black" points="686.89,-174.5 676.89,-178 686.89,-181.5 686.89,-174.5"/>
</g>
<!-- AppComponent  -->
<g id="node10" class="node">
<title>AppComponent </title>
<polygon fill="#80b1d3" stroke="black" points="689.44,-252 580.56,-252 580.56,-216 689.44,-216 689.44,-252"/>
<text text-anchor="middle" x="635" y="-229.8" font-family="Times,serif" font-size="14.00">AppComponent </text>
</g>
<!-- AppModule&#45;&gt;AppComponent  -->
<g id="edge9" class="edge">
<title>AppModule&#45;&gt;AppComponent </title>
<path fill="none" stroke="black" stroke-dasharray="1,5" d="M635,-187.11C635,-187.11 635,-205.99 635,-205.99"/>
<polygon fill="black" stroke="black" points="631.5,-205.99 635,-215.99 638.5,-205.99 631.5,-205.99"/>
</g>
<!-- AppRoutingModule -->
<g id="node3" class="node">
<title>AppRoutingModule</title>
<polygon fill="#8dd3c7" stroke="black" points="999.27,-122 996.27,-126 975.27,-126 972.27,-122 870.73,-122 870.73,-86 999.27,-86 999.27,-122"/>
<text text-anchor="middle" x="935" y="-99.8" font-family="Times,serif" font-size="14.00">AppRoutingModule</text>
</g>
<!-- AppRoutingModule&#45;&gt;AppModule -->
<g id="edge2" class="edge">
<title>AppRoutingModule&#45;&gt;AppModule</title>
<path fill="none" stroke="black" d="M935,-122.11C935,-141.34 935,-169 935,-169 935,-169 686.71,-169 686.71,-169"/>
<polygon fill="black" stroke="black" points="686.71,-165.5 676.71,-169 686.71,-172.5 686.71,-165.5"/>
</g>
<!-- CoreModule -->
<g id="node4" class="node">
<title>CoreModule</title>
<polygon fill="#8dd3c7" stroke="black" points="852.26,-122 849.26,-126 828.26,-126 825.26,-122 765.74,-122 765.74,-86 852.26,-86 852.26,-122"/>
<text text-anchor="middle" x="809" y="-99.8" font-family="Times,serif" font-size="14.00">CoreModule</text>
</g>
<!-- CoreModule&#45;&gt;AppModule -->
<g id="edge3" class="edge">
<title>CoreModule&#45;&gt;AppModule</title>
<path fill="none" stroke="black" d="M809,-122.03C809,-138.4 809,-160 809,-160 809,-160 686.68,-160 686.68,-160"/>
<polygon fill="black" stroke="black" points="686.68,-156.5 676.68,-160 686.68,-163.5 686.68,-156.5"/>
</g>
<!-- SharedModule -->
<g id="node5" class="node">
<title>SharedModule</title>
<polygon fill="#8dd3c7" stroke="black" points="747.42,-122 744.42,-126 723.42,-126 720.42,-122 648.58,-122 648.58,-86 747.42,-86 747.42,-122"/>
<text text-anchor="middle" x="698" y="-99.8" font-family="Times,serif" font-size="14.00">SharedModule</text>
</g>
<!-- SharedModule&#45;&gt;AppModule -->
<g id="edge4" class="edge">
<title>SharedModule&#45;&gt;AppModule</title>
<path fill="none" stroke="black" d="M662.81,-122.11C662.81,-122.11 662.81,-140.99 662.81,-140.99"/>
<polygon fill="black" stroke="black" points="659.31,-140.99 662.81,-150.99 666.31,-140.99 659.31,-140.99"/>
</g>
<!-- ViewAuthModule -->
<g id="node6" class="node">
<title>ViewAuthModule</title>
<polygon fill="#8dd3c7" stroke="black" points="630.87,-122 627.87,-126 606.87,-126 603.87,-122 513.13,-122 513.13,-86 630.87,-86 630.87,-122"/>
<text text-anchor="middle" x="572" y="-99.8" font-family="Times,serif" font-size="14.00">ViewAuthModule</text>
</g>
<!-- ViewAuthModule&#45;&gt;AppModule -->
<g id="edge5" class="edge">
<title>ViewAuthModule&#45;&gt;AppModule</title>
<path fill="none" stroke="black" d="M612.05,-122.11C612.05,-122.11 612.05,-140.99 612.05,-140.99"/>
<polygon fill="black" stroke="black" points="608.55,-140.99 612.05,-150.99 615.55,-140.99 608.55,-140.99"/>
</g>
<!-- ViewMessagesModule -->
<g id="node7" class="node">
<title>ViewMessagesModule</title>
<polygon fill="#8dd3c7" stroke="black" points="495.29,-122 492.29,-126 471.29,-126 468.29,-122 350.71,-122 350.71,-86 495.29,-86 495.29,-122"/>
<text text-anchor="middle" x="423" y="-99.8" font-family="Times,serif" font-size="14.00">ViewMessagesModule</text>
</g>
<!-- ViewMessagesModule&#45;&gt;AppModule -->
<g id="edge6" class="edge">
<title>ViewMessagesModule&#45;&gt;AppModule</title>
<path fill="none" stroke="black" d="M423,-122.03C423,-138.4 423,-160 423,-160 423,-160 583.12,-160 583.12,-160"/>
<polygon fill="black" stroke="black" points="583.12,-163.5 593.12,-160 583.12,-156.5 583.12,-163.5"/>
</g>
<!-- ViewNotificationModule -->
<g id="node8" class="node">
<title>ViewNotificationModule</title>
<polygon fill="#8dd3c7" stroke="black" points="332.52,-122 329.52,-126 308.52,-126 305.52,-122 175.48,-122 175.48,-86 332.52,-86 332.52,-122"/>
<text text-anchor="middle" x="254" y="-99.8" font-family="Times,serif" font-size="14.00">ViewNotificationModule</text>
</g>
<!-- ViewNotificationModule&#45;&gt;AppModule -->
<g id="edge7" class="edge">
<title>ViewNotificationModule&#45;&gt;AppModule</title>
<path fill="none" stroke="black" d="M254,-122.11C254,-141.34 254,-169 254,-169 254,-169 583.14,-169 583.14,-169"/>
<polygon fill="black" stroke="black" points="583.14,-172.5 593.14,-169 583.14,-165.5 583.14,-172.5"/>
</g>
<!-- ViewProductModule -->
<g id="node9" class="node">
<title>ViewProductModule</title>
<polygon fill="#8dd3c7" stroke="black" points="157.92,-122 154.92,-126 133.92,-126 130.92,-122 24.08,-122 24.08,-86 157.92,-86 157.92,-122"/>
<text text-anchor="middle" x="91" y="-99.8" font-family="Times,serif" font-size="14.00">ViewProductModule</text>
</g>
<!-- ViewProductModule&#45;&gt;AppModule -->
<g id="edge8" class="edge">
<title>ViewProductModule&#45;&gt;AppModule</title>
<path fill="none" stroke="black" d="M91,-122.29C91,-144.21 91,-178 91,-178 91,-178 583.22,-178 583.22,-178"/>
<polygon fill="black" stroke="black" points="583.22,-181.5 593.22,-178 583.22,-174.5 583.22,-181.5"/>
</g>
</g>
</svg>
