<?xml version="1.0" encoding="UTF-8" standalone="no"?>
<!DOCTYPE svg PUBLIC "-//W3C//DTD SVG 1.1//EN"
 "http://www.w3.org/Graphics/SVG/1.1/DTD/svg11.dtd">
<!-- Generated by graphviz version 2.47.0 (20210316.0004)
 -->
<!-- Title: dependencies Pages: 1 -->
<svg width="552pt" height="284pt"
 viewBox="0.00 0.00 552.00 284.00" xmlns="http://www.w3.org/2000/svg" xmlns:xlink="http://www.w3.org/1999/xlink">
<g id="graph0" class="graph" transform="scale(1 1) rotate(0) translate(4 280)">
<title>dependencies</title>
<polygon fill="white" stroke="transparent" points="-4,4 -4,-280 548,-280 548,4 -4,4"/>
<text text-anchor="start" x="251.01" y="-42.4" font-family="Times-12" font-weight="bold" font-size="14.00">Legend</text>
<polygon fill="#ffffb3" stroke="transparent" points="38,-10 38,-30 58,-30 58,-10 38,-10"/>
<text text-anchor="start" x="61.63" y="-15.4" font-family="Times-12" font-size="14.00"> &#160;Declarations</text>
<polygon fill="#8dd3c7" stroke="transparent" points="151,-10 151,-30 171,-30 171,-10 151,-10"/>
<text text-anchor="start" x="174.73" y="-15.4" font-family="Times-12" font-size="14.00"> &#160;Module</text>
<polygon fill="#80b1d3" stroke="transparent" points="237,-10 237,-30 257,-30 257,-10 237,-10"/>
<text text-anchor="start" x="260.78" y="-15.4" font-family="Times-12" font-size="14.00"> &#160;Bootstrap</text>
<polygon fill="#fdb462" stroke="transparent" points="334,-10 334,-30 354,-30 354,-10 334,-10"/>
<text text-anchor="start" x="357.67" y="-15.4" font-family="Times-12" font-size="14.00"> &#160;Providers</text>
<polygon fill="#fb8072" stroke="transparent" points="430,-10 430,-30 450,-30 450,-10 430,-10"/>
<text text-anchor="start" x="453.73" y="-15.4" font-family="Times-12" font-size="14.00"> &#160;Exports</text>
<g id="clust1" class="cluster">
<title>cluster_ViewMessagesModule</title>
<polygon fill="none" stroke="black" stroke-dasharray="1,5" points="8,-70 8,-268 536,-268 536,-70 8,-70"/>
</g>
<g id="clust5" class="cluster">
<title>cluster_ViewMessagesModule_exports</title>
<polygon fill="none" stroke="black" points="216,-208 216,-260 402,-260 402,-208 216,-208"/>
</g>
<g id="clust4" class="cluster">
<title>cluster_ViewMessagesModule_imports</title>
<polygon fill="none" stroke="black" points="206,-78 206,-130 528,-130 528,-78 206,-78"/>
</g>
<g id="clust2" class="cluster">
<title>cluster_ViewMessagesModule_declarations</title>
<polygon fill="none" stroke="black" points="16,-78 16,-130 198,-130 198,-78 16,-78"/>
</g>
<!-- ViewMessagesComponent -->
<g id="node1" class="node">
<title>ViewMessagesComponent</title>
<polygon fill="#ffffb3" stroke="black" points="190.07,-122 23.93,-122 23.93,-86 190.07,-86 190.07,-122"/>
<text text-anchor="middle" x="107" y="-99.8" font-family="Times,serif" font-size="14.00">ViewMessagesComponent</text>
</g>
<!-- ViewMessagesModule -->
<g id="node2" class="node">
<title>ViewMessagesModule</title>
<polygon fill="#8dd3c7" stroke="black" points="381.29,-187 378.29,-191 357.29,-191 354.29,-187 236.71,-187 236.71,-151 381.29,-151 381.29,-187"/>
<text text-anchor="middle" x="309" y="-164.8" font-family="Times,serif" font-size="14.00">ViewMessagesModule</text>
</g>
<!-- ViewMessagesComponent&#45;&gt;ViewMessagesModule -->
<g id="edge1" class="edge">
<title>ViewMessagesComponent&#45;&gt;ViewMessagesModule</title>
<path fill="none" stroke="black" d="M107,-122.11C107,-141.34 107,-169 107,-169 107,-169 226.64,-169 226.64,-169"/>
<polygon fill="black" stroke="black" points="226.64,-172.5 236.64,-169 226.64,-165.5 226.64,-172.5"/>
</g>
<!-- ViewMessagesComponent  -->
<g id="node5" class="node">
<title>ViewMessagesComponent </title>
<polygon fill="#fb8072" stroke="black" points="393.57,-252 224.43,-252 224.43,-216 393.57,-216 393.57,-252"/>
<text text-anchor="middle" x="309" y="-229.8" font-family="Times,serif" font-size="14.00">ViewMessagesComponent </text>
</g>
<!-- ViewMessagesModule&#45;&gt;ViewMessagesComponent  -->
<g id="edge4" class="edge">
<title>ViewMessagesModule&#45;&gt;ViewMessagesComponent </title>
<path fill="none" stroke="black" stroke-dasharray="5,2" d="M309,-187.11C309,-187.11 309,-205.99 309,-205.99"/>
<polygon fill="black" stroke="black" points="305.5,-205.99 309,-215.99 312.5,-205.99 305.5,-205.99"/>
</g>
<!-- SharedModule -->
<g id="node3" class="node">
<title>SharedModule</title>
<polygon fill="#8dd3c7" stroke="black" points="520.42,-122 517.42,-126 496.42,-126 493.42,-122 421.58,-122 421.58,-86 520.42,-86 520.42,-122"/>
<text text-anchor="middle" x="471" y="-99.8" font-family="Times,serif" font-size="14.00">SharedModule</text>
</g>
<!-- SharedModule&#45;&gt;ViewMessagesModule -->
<g id="edge2" class="edge">
<title>SharedModule&#45;&gt;ViewMessagesModule</title>
<path fill="none" stroke="black" d="M471,-122.11C471,-141.34 471,-169 471,-169 471,-169 391.47,-169 391.47,-169"/>
<polygon fill="black" stroke="black" points="391.47,-165.5 381.47,-169 391.47,-172.5 391.47,-165.5"/>
</g>
<!-- ViewMessagesRoutingModule -->
<g id="node4" class="node">
<title>ViewMessagesRoutingModule</title>
<polygon fill="#8dd3c7" stroke="black" points="403.91,-122 400.91,-126 379.91,-126 376.91,-122 214.09,-122 214.09,-86 403.91,-86 403.91,-122"/>
<text text-anchor="middle" x="309" y="-99.8" font-family="Times,serif" font-size="14.00">ViewMessagesRoutingModule</text>
</g>
<!-- ViewMessagesRoutingModule&#45;&gt;ViewMessagesModule -->
<g id="edge3" class="edge">
<title>ViewMessagesRoutingModule&#45;&gt;ViewMessagesModule</title>
<path fill="none" stroke="black" d="M309,-122.11C309,-122.11 309,-140.99 309,-140.99"/>
<polygon fill="black" stroke="black" points="305.5,-140.99 309,-150.99 312.5,-140.99 305.5,-140.99"/>
</g>
</g>
</svg>
