<?xml version="1.0" encoding="UTF-8" standalone="no"?>
<!DOCTYPE svg PUBLIC "-//W3C//DTD SVG 1.1//EN"
 "http://www.w3.org/Graphics/SVG/1.1/DTD/svg11.dtd">
<!-- Generated by graphviz version 2.47.0 (20210316.0004)
 -->
<!-- Title: dependencies Pages: 1 -->
<svg width="504pt" height="284pt"
 viewBox="0.00 0.00 504.00 284.00" xmlns="http://www.w3.org/2000/svg" xmlns:xlink="http://www.w3.org/1999/xlink">
<g id="graph0" class="graph" transform="scale(1 1) rotate(0) translate(4 280)">
<title>dependencies</title>
<polygon fill="white" stroke="transparent" points="-4,4 -4,-280 500,-280 500,4 -4,4"/>
<text text-anchor="start" x="227.01" y="-42.4" font-family="Times-12" font-weight="bold" font-size="14.00">Legend</text>
<polygon fill="#ffffb3" stroke="transparent" points="14,-10 14,-30 34,-30 34,-10 14,-10"/>
<text text-anchor="start" x="37.63" y="-15.4" font-family="Times-12" font-size="14.00"> &#160;Declarations</text>
<polygon fill="#8dd3c7" stroke="transparent" points="127,-10 127,-30 147,-30 147,-10 127,-10"/>
<text text-anchor="start" x="150.73" y="-15.4" font-family="Times-12" font-size="14.00"> &#160;Module</text>
<polygon fill="#80b1d3" stroke="transparent" points="213,-10 213,-30 233,-30 233,-10 213,-10"/>
<text text-anchor="start" x="236.78" y="-15.4" font-family="Times-12" font-size="14.00"> &#160;Bootstrap</text>
<polygon fill="#fdb462" stroke="transparent" points="310,-10 310,-30 330,-30 330,-10 310,-10"/>
<text text-anchor="start" x="333.67" y="-15.4" font-family="Times-12" font-size="14.00"> &#160;Providers</text>
<polygon fill="#fb8072" stroke="transparent" points="406,-10 406,-30 426,-30 426,-10 406,-10"/>
<text text-anchor="start" x="429.73" y="-15.4" font-family="Times-12" font-size="14.00"> &#160;Exports</text>
<g id="clust1" class="cluster">
<title>cluster_ViewMessagesModule</title>
<polygon fill="none" stroke="black" stroke-dasharray="1,5" points="42,-70 42,-268 454,-268 454,-70 42,-70"/>
</g>
<g id="clust2" class="cluster">
<title>cluster_ViewMessagesModule_declarations</title>
<polygon fill="none" stroke="black" points="264,-78 264,-130 446,-130 446,-78 264,-78"/>
</g>
<g id="clust5" class="cluster">
<title>cluster_ViewMessagesModule_exports</title>
<polygon fill="none" stroke="black" points="160,-208 160,-260 346,-260 346,-208 160,-208"/>
</g>
<g id="clust4" class="cluster">
<title>cluster_ViewMessagesModule_imports</title>
<polygon fill="none" stroke="black" points="50,-78 50,-130 256,-130 256,-78 50,-78"/>
</g>
<!-- ViewMessagesComponent -->
<g id="node1" class="node">
<title>ViewMessagesComponent</title>
<polygon fill="#ffffb3" stroke="black" points="438.07,-122 271.93,-122 271.93,-86 438.07,-86 438.07,-122"/>
<text text-anchor="middle" x="355" y="-99.8" font-family="Times,serif" font-size="14.00">ViewMessagesComponent</text>
</g>
<!-- ViewMessagesModule -->
<g id="node2" class="node">
<title>ViewMessagesModule</title>
<polygon fill="#8dd3c7" stroke="black" points="325.29,-187 322.29,-191 301.29,-191 298.29,-187 180.71,-187 180.71,-151 325.29,-151 325.29,-187"/>
<text text-anchor="middle" x="253" y="-164.8" font-family="Times,serif" font-size="14.00">ViewMessagesModule</text>
</g>
<!-- ViewMessagesComponent&#45;&gt;ViewMessagesModule -->
<g id="edge1" class="edge">
<title>ViewMessagesComponent&#45;&gt;ViewMessagesModule</title>
<path fill="none" stroke="black" d="M298.55,-122.11C298.55,-122.11 298.55,-140.99 298.55,-140.99"/>
<polygon fill="black" stroke="black" points="295.05,-140.99 298.55,-150.99 302.05,-140.99 295.05,-140.99"/>
</g>
<!-- ViewMessagesComponent  -->
<g id="node4" class="node">
<title>ViewMessagesComponent </title>
<polygon fill="#fb8072" stroke="black" points="337.57,-252 168.43,-252 168.43,-216 337.57,-216 337.57,-252"/>
<text text-anchor="middle" x="253" y="-229.8" font-family="Times,serif" font-size="14.00">ViewMessagesComponent </text>
</g>
<!-- ViewMessagesModule&#45;&gt;ViewMessagesComponent  -->
<g id="edge3" class="edge">
<title>ViewMessagesModule&#45;&gt;ViewMessagesComponent </title>
<path fill="none" stroke="black" stroke-dasharray="5,2" d="M253,-187.11C253,-187.11 253,-205.99 253,-205.99"/>
<polygon fill="black" stroke="black" points="249.5,-205.99 253,-215.99 256.5,-205.99 249.5,-205.99"/>
</g>
<!-- ViewMessagesRoutingModule -->
<g id="node3" class="node">
<title>ViewMessagesRoutingModule</title>
<polygon fill="#8dd3c7" stroke="black" points="247.91,-122 244.91,-126 223.91,-126 220.91,-122 58.09,-122 58.09,-86 247.91,-86 247.91,-122"/>
<text text-anchor="middle" x="153" y="-99.8" font-family="Times,serif" font-size="14.00">ViewMessagesRoutingModule</text>
</g>
<!-- ViewMessagesRoutingModule&#45;&gt;ViewMessagesModule -->
<g id="edge2" class="edge">
<title>ViewMessagesRoutingModule&#45;&gt;ViewMessagesModule</title>
<path fill="none" stroke="black" d="M214.28,-122.11C214.28,-122.11 214.28,-140.99 214.28,-140.99"/>
<polygon fill="black" stroke="black" points="210.78,-140.99 214.28,-150.99 217.78,-140.99 210.78,-140.99"/>
</g>
</g>
</svg>
