<?xml version="1.0" encoding="UTF-8" standalone="no"?>
<!DOCTYPE svg PUBLIC "-//W3C//DTD SVG 1.1//EN"
 "http://www.w3.org/Graphics/SVG/1.1/DTD/svg11.dtd">
<!-- Generated by graphviz version 2.47.0 (20210316.0004)
 -->
<!-- Title: dependencies Pages: 1 -->
<svg width="504pt" height="284pt"
 viewBox="0.00 0.00 504.00 284.00" xmlns="http://www.w3.org/2000/svg" xmlns:xlink="http://www.w3.org/1999/xlink">
<g id="graph0" class="graph" transform="scale(1 1) rotate(0) translate(4 280)">
<title>dependencies</title>
<polygon fill="white" stroke="transparent" points="-4,4 -4,-280 500,-280 500,4 -4,4"/>
<text text-anchor="start" x="227.01" y="-42.4" font-family="Times-12" font-weight="bold" font-size="14.00">Legend</text>
<polygon fill="#ffffb3" stroke="transparent" points="14,-10 14,-30 34,-30 34,-10 14,-10"/>
<text text-anchor="start" x="37.63" y="-15.4" font-family="Times-12" font-size="14.00"> &#160;Declarations</text>
<polygon fill="#8dd3c7" stroke="transparent" points="127,-10 127,-30 147,-30 147,-10 127,-10"/>
<text text-anchor="start" x="150.73" y="-15.4" font-family="Times-12" font-size="14.00"> &#160;Module</text>
<polygon fill="#80b1d3" stroke="transparent" points="213,-10 213,-30 233,-30 233,-10 213,-10"/>
<text text-anchor="start" x="236.78" y="-15.4" font-family="Times-12" font-size="14.00"> &#160;Bootstrap</text>
<polygon fill="#fdb462" stroke="transparent" points="310,-10 310,-30 330,-30 330,-10 310,-10"/>
<text text-anchor="start" x="333.67" y="-15.4" font-family="Times-12" font-size="14.00"> &#160;Providers</text>
<polygon fill="#fb8072" stroke="transparent" points="406,-10 406,-30 426,-30 426,-10 406,-10"/>
<text text-anchor="start" x="429.73" y="-15.4" font-family="Times-12" font-size="14.00"> &#160;Exports</text>
<g id="clust1" class="cluster">
<title>cluster_ViewMessagesModule</title>
<polygon fill="none" stroke="black" stroke-dasharray="1,5" points="42,-70 42,-268 454,-268 454,-70 42,-70"/>
</g>
<g id="clust4" class="cluster">
<title>cluster_ViewMessagesModule_imports</title>
<polygon fill="none" stroke="black" points="240,-78 240,-130 446,-130 446,-78 240,-78"/>
</g>
<g id="clust2" class="cluster">
<title>cluster_ViewMessagesModule_declarations</title>
<polygon fill="none" stroke="black" points="50,-78 50,-130 232,-130 232,-78 50,-78"/>
</g>
<g id="clust5" class="cluster">
<title>cluster_ViewMessagesModule_exports</title>
<polygon fill="none" stroke="black" points="150,-208 150,-260 336,-260 336,-208 150,-208"/>
</g>
<!-- ViewMessagesComponent -->
<g id="node1" class="node">
<title>ViewMessagesComponent</title>
<polygon fill="#ffffb3" stroke="black" points="224.07,-122 57.93,-122 57.93,-86 224.07,-86 224.07,-122"/>
<text text-anchor="middle" x="141" y="-99.8" font-family="Times,serif" font-size="14.00">ViewMessagesComponent</text>
</g>
<!-- ViewMessagesModule -->
<g id="node2" class="node">
<title>ViewMessagesModule</title>
<polygon fill="#8dd3c7" stroke="black" points="315.29,-187 312.29,-191 291.29,-191 288.29,-187 170.71,-187 170.71,-151 315.29,-151 315.29,-187"/>
<text text-anchor="middle" x="243" y="-164.8" font-family="Times,serif" font-size="14.00">ViewMessagesModule</text>
</g>
<!-- ViewMessagesComponent&#45;&gt;ViewMessagesModule -->
<g id="edge1" class="edge">
<title>ViewMessagesComponent&#45;&gt;ViewMessagesModule</title>
<path fill="none" stroke="black" d="M197.45,-122.11C197.45,-122.11 197.45,-140.99 197.45,-140.99"/>
<polygon fill="black" stroke="black" points="193.95,-140.99 197.45,-150.99 200.95,-140.99 193.95,-140.99"/>
</g>
<!-- ViewMessagesComponent  -->
<g id="node4" class="node">
<title>ViewMessagesComponent </title>
<polygon fill="#fb8072" stroke="black" points="327.57,-252 158.43,-252 158.43,-216 327.57,-216 327.57,-252"/>
<text text-anchor="middle" x="243" y="-229.8" font-family="Times,serif" font-size="14.00">ViewMessagesComponent </text>
</g>
<!-- ViewMessagesModule&#45;&gt;ViewMessagesComponent  -->
<g id="edge3" class="edge">
<title>ViewMessagesModule&#45;&gt;ViewMessagesComponent </title>
<path fill="none" stroke="black" stroke-dasharray="5,2" d="M243,-187.11C243,-187.11 243,-205.99 243,-205.99"/>
<polygon fill="black" stroke="black" points="239.5,-205.99 243,-215.99 246.5,-205.99 239.5,-205.99"/>
</g>
<!-- ViewMessagesRoutingModule -->
<g id="node3" class="node">
<title>ViewMessagesRoutingModule</title>
<polygon fill="#8dd3c7" stroke="black" points="437.91,-122 434.91,-126 413.91,-126 410.91,-122 248.09,-122 248.09,-86 437.91,-86 437.91,-122"/>
<text text-anchor="middle" x="343" y="-99.8" font-family="Times,serif" font-size="14.00">ViewMessagesRoutingModule</text>
</g>
<!-- ViewMessagesRoutingModule&#45;&gt;ViewMessagesModule -->
<g id="edge2" class="edge">
<title>ViewMessagesRoutingModule&#45;&gt;ViewMessagesModule</title>
<path fill="none" stroke="black" d="M281.72,-122.11C281.72,-122.11 281.72,-140.99 281.72,-140.99"/>
<polygon fill="black" stroke="black" points="278.22,-140.99 281.72,-150.99 285.22,-140.99 278.22,-140.99"/>
</g>
</g>
</svg>
