<?xml version="1.0" encoding="UTF-8" standalone="no"?>
<!DOCTYPE svg PUBLIC "-//W3C//DTD SVG 1.1//EN"
 "http://www.w3.org/Graphics/SVG/1.1/DTD/svg11.dtd">
<!-- Generated by graphviz version 2.47.0 (20210316.0004)
 -->
<!-- Title: dependencies Pages: 1 -->
<svg width="504pt" height="211pt"
 viewBox="0.00 0.00 504.00 211.00" xmlns="http://www.w3.org/2000/svg" xmlns:xlink="http://www.w3.org/1999/xlink">
<g id="graph0" class="graph" transform="scale(1 1) rotate(0) translate(4 207)">
<title>dependencies</title>
<polygon fill="white" stroke="transparent" points="-4,4 -4,-207 500,-207 500,4 -4,4"/>
<text text-anchor="start" x="227.01" y="-42.4" font-family="Times-12" font-weight="bold" font-size="14.00">Legend</text>
<polygon fill="#ffffb3" stroke="transparent" points="14,-10 14,-30 34,-30 34,-10 14,-10"/>
<text text-anchor="start" x="37.63" y="-15.4" font-family="Times-12" font-size="14.00"> &#160;Declarations</text>
<polygon fill="#8dd3c7" stroke="transparent" points="127,-10 127,-30 147,-30 147,-10 127,-10"/>
<text text-anchor="start" x="150.73" y="-15.4" font-family="Times-12" font-size="14.00"> &#160;Module</text>
<polygon fill="#80b1d3" stroke="transparent" points="213,-10 213,-30 233,-30 233,-10 213,-10"/>
<text text-anchor="start" x="236.78" y="-15.4" font-family="Times-12" font-size="14.00"> &#160;Bootstrap</text>
<polygon fill="#fdb462" stroke="transparent" points="310,-10 310,-30 330,-30 330,-10 310,-10"/>
<text text-anchor="start" x="333.67" y="-15.4" font-family="Times-12" font-size="14.00"> &#160;Providers</text>
<polygon fill="#fb8072" stroke="transparent" points="406,-10 406,-30 426,-30 426,-10 406,-10"/>
<text text-anchor="start" x="429.73" y="-15.4" font-family="Times-12" font-size="14.00"> &#160;Exports</text>
<g id="clust1" class="cluster">
<title>cluster_LayoutModule</title>
<polygon fill="none" stroke="black" stroke-dasharray="1,5" points="129,-70 129,-195 367,-195 367,-70 129,-70"/>
</g>
<g id="clust3" class="cluster">
<title>cluster_LayoutModule_imports</title>
<polygon fill="none" stroke="black" points="137,-78 137,-130 359,-130 359,-78 137,-78"/>
</g>
<!-- NgImportModule -->
<g id="node1" class="node">
<title>NgImportModule</title>
<polygon fill="#8dd3c7" stroke="black" points="351.26,-122 348.26,-126 327.26,-126 324.26,-122 236.74,-122 236.74,-86 351.26,-86 351.26,-122"/>
<text text-anchor="middle" x="294" y="-99.8" font-family="Times,serif" font-size="14.00">NgImportModule</text>
</g>
<!-- LayoutModule -->
<g id="node3" class="node">
<title>LayoutModule</title>
<polygon fill="#8dd3c7" stroke="black" points="289.71,-187 286.71,-191 265.71,-191 262.71,-187 190.29,-187 190.29,-151 289.71,-151 289.71,-187"/>
<text text-anchor="middle" x="240" y="-164.8" font-family="Times,serif" font-size="14.00">LayoutModule</text>
</g>
<!-- NgImportModule&#45;&gt;LayoutModule -->
<g id="edge1" class="edge">
<title>NgImportModule&#45;&gt;LayoutModule</title>
<path fill="none" stroke="black" d="M263.11,-122.11C263.11,-122.11 263.11,-140.99 263.11,-140.99"/>
<polygon fill="black" stroke="black" points="259.61,-140.99 263.11,-150.99 266.61,-140.99 259.61,-140.99"/>
</g>
<!-- UiModule -->
<g id="node2" class="node">
<title>UiModule</title>
<polygon fill="#8dd3c7" stroke="black" points="218.55,-122 215.55,-126 194.55,-126 191.55,-122 145.45,-122 145.45,-86 218.55,-86 218.55,-122"/>
<text text-anchor="middle" x="182" y="-99.8" font-family="Times,serif" font-size="14.00">UiModule</text>
</g>
<!-- UiModule&#45;&gt;LayoutModule -->
<g id="edge2" class="edge">
<title>UiModule&#45;&gt;LayoutModule</title>
<path fill="none" stroke="black" d="M204.58,-122.11C204.58,-122.11 204.58,-140.99 204.58,-140.99"/>
<polygon fill="black" stroke="black" points="201.08,-140.99 204.58,-150.99 208.08,-140.99 201.08,-140.99"/>
</g>
</g>
</svg>
