<?xml version="1.0" encoding="UTF-8" standalone="no"?>
<!DOCTYPE svg PUBLIC "-//W3C//DTD SVG 1.1//EN"
 "http://www.w3.org/Graphics/SVG/1.1/DTD/svg11.dtd">
<!-- Generated by graphviz version 2.47.0 (20210316.0004)
 -->
<!-- Title: dependencies Pages: 1 -->
<svg width="778pt" height="284pt"
 viewBox="0.00 0.00 778.00 284.00" xmlns="http://www.w3.org/2000/svg" xmlns:xlink="http://www.w3.org/1999/xlink">
<g id="graph0" class="graph" transform="scale(1 1) rotate(0) translate(4 280)">
<title>dependencies</title>
<polygon fill="white" stroke="transparent" points="-4,4 -4,-280 774,-280 774,4 -4,4"/>
<text text-anchor="start" x="364.01" y="-42.4" font-family="Times-12" font-weight="bold" font-size="14.00">Legend</text>
<polygon fill="#ffffb3" stroke="transparent" points="151,-10 151,-30 171,-30 171,-10 151,-10"/>
<text text-anchor="start" x="174.63" y="-15.4" font-family="Times-12" font-size="14.00"> &#160;Declarations</text>
<polygon fill="#8dd3c7" stroke="transparent" points="264,-10 264,-30 284,-30 284,-10 264,-10"/>
<text text-anchor="start" x="287.73" y="-15.4" font-family="Times-12" font-size="14.00"> &#160;Module</text>
<polygon fill="#80b1d3" stroke="transparent" points="350,-10 350,-30 370,-30 370,-10 350,-10"/>
<text text-anchor="start" x="373.78" y="-15.4" font-family="Times-12" font-size="14.00"> &#160;Bootstrap</text>
<polygon fill="#fdb462" stroke="transparent" points="447,-10 447,-30 467,-30 467,-10 447,-10"/>
<text text-anchor="start" x="470.67" y="-15.4" font-family="Times-12" font-size="14.00"> &#160;Providers</text>
<polygon fill="#fb8072" stroke="transparent" points="543,-10 543,-30 563,-30 563,-10 543,-10"/>
<text text-anchor="start" x="566.73" y="-15.4" font-family="Times-12" font-size="14.00"> &#160;Exports</text>
<g id="clust1" class="cluster">
<title>cluster_LayoutModule</title>
<polygon fill="none" stroke="black" stroke-dasharray="1,5" points="8,-70 8,-268 762,-268 762,-70 8,-70"/>
</g>
<g id="clust6" class="cluster">
<title>cluster_LayoutModule_imports</title>
<polygon fill="none" stroke="black" points="532,-78 532,-130 754,-130 754,-78 532,-78"/>
</g>
<g id="clust7" class="cluster">
<title>cluster_LayoutModule_exports</title>
<polygon fill="none" stroke="black" points="174,-208 174,-260 694,-260 694,-208 174,-208"/>
</g>
<g id="clust2" class="cluster">
<title>cluster_LayoutModule_declarations</title>
<polygon fill="none" stroke="black" points="16,-78 16,-130 524,-130 524,-78 16,-78"/>
</g>
<!-- LayoutContentDirective -->
<g id="node1" class="node">
<title>LayoutContentDirective</title>
<polygon fill="#ffffb3" stroke="black" points="516.07,-122 363.93,-122 363.93,-86 516.07,-86 516.07,-122"/>
<text text-anchor="middle" x="440" y="-99.8" font-family="Times,serif" font-size="14.00">LayoutContentDirective</text>
</g>
<!-- LayoutModule -->
<g id="node4" class="node">
<title>LayoutModule</title>
<polygon fill="#8dd3c7" stroke="black" points="489.71,-187 486.71,-191 465.71,-191 462.71,-187 390.29,-187 390.29,-151 489.71,-151 489.71,-187"/>
<text text-anchor="middle" x="440" y="-164.8" font-family="Times,serif" font-size="14.00">LayoutModule</text>
</g>
<!-- LayoutContentDirective&#45;&gt;LayoutModule -->
<g id="edge1" class="edge">
<title>LayoutContentDirective&#45;&gt;LayoutModule</title>
<path fill="none" stroke="black" d="M440,-122.11C440,-122.11 440,-140.99 440,-140.99"/>
<polygon fill="black" stroke="black" points="436.5,-140.99 440,-150.99 443.5,-140.99 436.5,-140.99"/>
</g>
<!-- LayoutMenuDirective -->
<g id="node2" class="node">
<title>LayoutMenuDirective</title>
<polygon fill="#ffffb3" stroke="black" points="346.4,-122 205.6,-122 205.6,-86 346.4,-86 346.4,-122"/>
<text text-anchor="middle" x="276" y="-99.8" font-family="Times,serif" font-size="14.00">LayoutMenuDirective</text>
</g>
<!-- LayoutMenuDirective&#45;&gt;LayoutModule -->
<g id="edge2" class="edge">
<title>LayoutMenuDirective&#45;&gt;LayoutModule</title>
<path fill="none" stroke="black" d="M299.4,-122.03C299.4,-138.4 299.4,-160 299.4,-160 299.4,-160 380.03,-160 380.03,-160"/>
<polygon fill="black" stroke="black" points="380.03,-163.5 390.03,-160 380.03,-156.5 380.03,-163.5"/>
</g>
<!-- LayoutSidebarComponent -->
<g id="node3" class="node">
<title>LayoutSidebarComponent</title>
<polygon fill="#ffffb3" stroke="black" points="187.75,-122 24.25,-122 24.25,-86 187.75,-86 187.75,-122"/>
<text text-anchor="middle" x="106" y="-99.8" font-family="Times,serif" font-size="14.00">LayoutSidebarComponent</text>
</g>
<!-- LayoutSidebarComponent&#45;&gt;LayoutModule -->
<g id="edge3" class="edge">
<title>LayoutSidebarComponent&#45;&gt;LayoutModule</title>
<path fill="none" stroke="black" d="M103.25,-122.11C103.25,-141.34 103.25,-169 103.25,-169 103.25,-169 380.31,-169 380.31,-169"/>
<polygon fill="black" stroke="black" points="380.31,-172.5 390.31,-169 380.31,-165.5 380.31,-172.5"/>
</g>
<!-- LayoutContentDirective  -->
<g id="node7" class="node">
<title>LayoutContentDirective </title>
<polygon fill="#fb8072" stroke="black" points="685.57,-252 530.43,-252 530.43,-216 685.57,-216 685.57,-252"/>
<text text-anchor="middle" x="608" y="-229.8" font-family="Times,serif" font-size="14.00">LayoutContentDirective </text>
</g>
<!-- LayoutModule&#45;&gt;LayoutContentDirective  -->
<g id="edge6" class="edge">
<title>LayoutModule&#45;&gt;LayoutContentDirective </title>
<path fill="none" stroke="black" stroke-dasharray="5,2" d="M489.84,-178C512.88,-178 535.22,-178 535.22,-178 535.22,-178 535.22,-205.97 535.22,-205.97"/>
<polygon fill="black" stroke="black" points="531.72,-205.97 535.22,-215.97 538.72,-205.97 531.72,-205.97"/>
</g>
<!-- LayoutMenuDirective  -->
<g id="node8" class="node">
<title>LayoutMenuDirective </title>
<polygon fill="#fb8072" stroke="black" points="511.9,-252 368.1,-252 368.1,-216 511.9,-216 511.9,-252"/>
<text text-anchor="middle" x="440" y="-229.8" font-family="Times,serif" font-size="14.00">LayoutMenuDirective </text>
</g>
<!-- LayoutModule&#45;&gt;LayoutMenuDirective  -->
<g id="edge7" class="edge">
<title>LayoutModule&#45;&gt;LayoutMenuDirective </title>
<path fill="none" stroke="black" stroke-dasharray="5,2" d="M440,-187.11C440,-187.11 440,-205.99 440,-205.99"/>
<polygon fill="black" stroke="black" points="436.5,-205.99 440,-215.99 443.5,-205.99 436.5,-205.99"/>
</g>
<!-- LayoutSidebarComponent  -->
<g id="node9" class="node">
<title>LayoutSidebarComponent </title>
<polygon fill="#fb8072" stroke="black" points="349.75,-252 182.25,-252 182.25,-216 349.75,-216 349.75,-252"/>
<text text-anchor="middle" x="266" y="-229.8" font-family="Times,serif" font-size="14.00">LayoutSidebarComponent </text>
</g>
<!-- LayoutModule&#45;&gt;LayoutSidebarComponent  -->
<g id="edge8" class="edge">
<title>LayoutModule&#45;&gt;LayoutSidebarComponent </title>
<path fill="none" stroke="black" stroke-dasharray="5,2" d="M390.27,-178C334.75,-178 252.6,-178 252.6,-178 252.6,-178 252.6,-205.97 252.6,-205.97"/>
<polygon fill="black" stroke="black" points="249.1,-205.97 252.6,-215.97 256.1,-205.97 249.1,-205.97"/>
</g>
<!-- NgImportModule -->
<g id="node5" class="node">
<title>NgImportModule</title>
<polygon fill="#8dd3c7" stroke="black" points="746.26,-122 743.26,-126 722.26,-126 719.26,-122 631.74,-122 631.74,-86 746.26,-86 746.26,-122"/>
<text text-anchor="middle" x="689" y="-99.8" font-family="Times,serif" font-size="14.00">NgImportModule</text>
</g>
<!-- NgImportModule&#45;&gt;LayoutModule -->
<g id="edge4" class="edge">
<title>NgImportModule&#45;&gt;LayoutModule</title>
<path fill="none" stroke="black" d="M658.7,-122.11C658.7,-141.34 658.7,-169 658.7,-169 658.7,-169 499.63,-169 499.63,-169"/>
<polygon fill="black" stroke="black" points="499.63,-165.5 489.63,-169 499.63,-172.5 499.63,-165.5"/>
</g>
<!-- UiModule -->
<g id="node6" class="node">
<title>UiModule</title>
<polygon fill="#8dd3c7" stroke="black" points="613.55,-122 610.55,-126 589.55,-126 586.55,-122 540.45,-122 540.45,-86 613.55,-86 613.55,-122"/>
<text text-anchor="middle" x="577" y="-99.8" font-family="Times,serif" font-size="14.00">UiModule</text>
</g>
<!-- UiModule&#45;&gt;LayoutModule -->
<g id="edge5" class="edge">
<title>UiModule&#45;&gt;LayoutModule</title>
<path fill="none" stroke="black" d="M577,-122.03C577,-138.4 577,-160 577,-160 577,-160 499.85,-160 499.85,-160"/>
<polygon fill="black" stroke="black" points="499.85,-156.5 489.85,-160 499.85,-163.5 499.85,-156.5"/>
</g>
</g>
</svg>
