<?xml version="1.0" encoding="UTF-8" standalone="no"?>
<!DOCTYPE svg PUBLIC "-//W3C//DTD SVG 1.1//EN"
 "http://www.w3.org/Graphics/SVG/1.1/DTD/svg11.dtd">
<!-- Generated by graphviz version 2.47.0 (20210316.0004)
 -->
<!-- Title: dependencies Pages: 1 -->
<svg width="579pt" height="284pt"
 viewBox="0.00 0.00 579.00 284.00" xmlns="http://www.w3.org/2000/svg" xmlns:xlink="http://www.w3.org/1999/xlink">
<g id="graph0" class="graph" transform="scale(1 1) rotate(0) translate(4 280)">
<title>dependencies</title>
<polygon fill="white" stroke="transparent" points="-4,4 -4,-280 575,-280 575,4 -4,4"/>
<text text-anchor="start" x="264.51" y="-42.4" font-family="Times-12" font-weight="bold" font-size="14.00">Legend</text>
<polygon fill="#ffffb3" stroke="transparent" points="51.5,-10 51.5,-30 71.5,-30 71.5,-10 51.5,-10"/>
<text text-anchor="start" x="75.13" y="-15.4" font-family="Times-12" font-size="14.00"> &#160;Declarations</text>
<polygon fill="#8dd3c7" stroke="transparent" points="164.5,-10 164.5,-30 184.5,-30 184.5,-10 164.5,-10"/>
<text text-anchor="start" x="188.23" y="-15.4" font-family="Times-12" font-size="14.00"> &#160;Module</text>
<polygon fill="#80b1d3" stroke="transparent" points="250.5,-10 250.5,-30 270.5,-30 270.5,-10 250.5,-10"/>
<text text-anchor="start" x="274.28" y="-15.4" font-family="Times-12" font-size="14.00"> &#160;Bootstrap</text>
<polygon fill="#fdb462" stroke="transparent" points="347.5,-10 347.5,-30 367.5,-30 367.5,-10 347.5,-10"/>
<text text-anchor="start" x="371.17" y="-15.4" font-family="Times-12" font-size="14.00"> &#160;Providers</text>
<polygon fill="#fb8072" stroke="transparent" points="443.5,-10 443.5,-30 463.5,-30 463.5,-10 443.5,-10"/>
<text text-anchor="start" x="467.23" y="-15.4" font-family="Times-12" font-size="14.00"> &#160;Exports</text>
<g id="clust1" class="cluster">
<title>cluster_ViewNotificationModule</title>
<polygon fill="none" stroke="black" stroke-dasharray="1,5" points="8,-70 8,-268 563,-268 563,-70 8,-70"/>
</g>
<g id="clust5" class="cluster">
<title>cluster_ViewNotificationModule_exports</title>
<polygon fill="none" stroke="black" points="195,-208 195,-260 393,-260 393,-208 195,-208"/>
</g>
<g id="clust2" class="cluster">
<title>cluster_ViewNotificationModule_declarations</title>
<polygon fill="none" stroke="black" points="359,-78 359,-130 555,-130 555,-78 359,-78"/>
</g>
<g id="clust4" class="cluster">
<title>cluster_ViewNotificationModule_imports</title>
<polygon fill="none" stroke="black" points="16,-78 16,-130 351,-130 351,-78 16,-78"/>
</g>
<!-- ViewNotificationComponent -->
<g id="node1" class="node">
<title>ViewNotificationComponent</title>
<polygon fill="#ffffb3" stroke="black" points="546.8,-122 367.2,-122 367.2,-86 546.8,-86 546.8,-122"/>
<text text-anchor="middle" x="457" y="-99.8" font-family="Times,serif" font-size="14.00">ViewNotificationComponent</text>
</g>
<!-- ViewNotificationModule -->
<g id="node2" class="node">
<title>ViewNotificationModule</title>
<polygon fill="#8dd3c7" stroke="black" points="372.52,-187 369.52,-191 348.52,-191 345.52,-187 215.48,-187 215.48,-151 372.52,-151 372.52,-187"/>
<text text-anchor="middle" x="294" y="-164.8" font-family="Times,serif" font-size="14.00">ViewNotificationModule</text>
</g>
<!-- ViewNotificationComponent&#45;&gt;ViewNotificationModule -->
<g id="edge1" class="edge">
<title>ViewNotificationComponent&#45;&gt;ViewNotificationModule</title>
<path fill="none" stroke="black" d="M379.08,-122.11C379.08,-141.34 379.08,-169 379.08,-169 379.08,-169 378.44,-169 378.44,-169"/>
<polygon fill="black" stroke="black" points="382.68,-165.5 372.68,-169 382.68,-172.5 382.68,-165.5"/>
</g>
<!-- ViewNotificationComponent  -->
<g id="node5" class="node">
<title>ViewNotificationComponent </title>
<polygon fill="#fb8072" stroke="black" points="385.3,-252 202.7,-252 202.7,-216 385.3,-216 385.3,-252"/>
<text text-anchor="middle" x="294" y="-229.8" font-family="Times,serif" font-size="14.00">ViewNotificationComponent </text>
</g>
<!-- ViewNotificationModule&#45;&gt;ViewNotificationComponent  -->
<g id="edge4" class="edge">
<title>ViewNotificationModule&#45;&gt;ViewNotificationComponent </title>
<path fill="none" stroke="black" stroke-dasharray="5,2" d="M294,-187.11C294,-187.11 294,-205.99 294,-205.99"/>
<polygon fill="black" stroke="black" points="290.5,-205.99 294,-215.99 297.5,-205.99 290.5,-205.99"/>
</g>
<!-- SharedModule -->
<g id="node3" class="node">
<title>SharedModule</title>
<polygon fill="#8dd3c7" stroke="black" points="343.42,-122 340.42,-126 319.42,-126 316.42,-122 244.58,-122 244.58,-86 343.42,-86 343.42,-122"/>
<text text-anchor="middle" x="294" y="-99.8" font-family="Times,serif" font-size="14.00">SharedModule</text>
</g>
<!-- SharedModule&#45;&gt;ViewNotificationModule -->
<g id="edge2" class="edge">
<title>SharedModule&#45;&gt;ViewNotificationModule</title>
<path fill="none" stroke="black" d="M294,-122.11C294,-122.11 294,-140.99 294,-140.99"/>
<polygon fill="black" stroke="black" points="290.5,-140.99 294,-150.99 297.5,-140.99 290.5,-140.99"/>
</g>
<!-- ViewNotificationRoutingModule -->
<g id="node4" class="node">
<title>ViewNotificationRoutingModule</title>
<polygon fill="#8dd3c7" stroke="black" points="226.14,-122 223.14,-126 202.14,-126 199.14,-122 23.86,-122 23.86,-86 226.14,-86 226.14,-122"/>
<text text-anchor="middle" x="125" y="-99.8" font-family="Times,serif" font-size="14.00">ViewNotificationRoutingModule</text>
</g>
<!-- ViewNotificationRoutingModule&#45;&gt;ViewNotificationModule -->
<g id="edge3" class="edge">
<title>ViewNotificationRoutingModule&#45;&gt;ViewNotificationModule</title>
<path fill="none" stroke="black" d="M220.78,-122.11C220.78,-122.11 220.78,-140.99 220.78,-140.99"/>
<polygon fill="black" stroke="black" points="217.28,-140.99 220.78,-150.99 224.28,-140.99 217.28,-140.99"/>
</g>
</g>
</svg>
