<?xml version="1.0" encoding="UTF-8" standalone="no"?>
<!DOCTYPE svg PUBLIC "-//W3C//DTD SVG 1.1//EN"
 "http://www.w3.org/Graphics/SVG/1.1/DTD/svg11.dtd">
<!-- Generated by graphviz version 2.47.0 (20210316.0004)
 -->
<!-- Title: dependencies Pages: 1 -->
<svg width="504pt" height="284pt"
 viewBox="0.00 0.00 504.00 284.00" xmlns="http://www.w3.org/2000/svg" xmlns:xlink="http://www.w3.org/1999/xlink">
<g id="graph0" class="graph" transform="scale(1 1) rotate(0) translate(4 280)">
<title>dependencies</title>
<polygon fill="white" stroke="transparent" points="-4,4 -4,-280 500,-280 500,4 -4,4"/>
<text text-anchor="start" x="227.01" y="-42.4" font-family="Times-12" font-weight="bold" font-size="14.00">Legend</text>
<polygon fill="#ffffb3" stroke="transparent" points="14,-10 14,-30 34,-30 34,-10 14,-10"/>
<text text-anchor="start" x="37.63" y="-15.4" font-family="Times-12" font-size="14.00"> &#160;Declarations</text>
<polygon fill="#8dd3c7" stroke="transparent" points="127,-10 127,-30 147,-30 147,-10 127,-10"/>
<text text-anchor="start" x="150.73" y="-15.4" font-family="Times-12" font-size="14.00"> &#160;Module</text>
<polygon fill="#80b1d3" stroke="transparent" points="213,-10 213,-30 233,-30 233,-10 213,-10"/>
<text text-anchor="start" x="236.78" y="-15.4" font-family="Times-12" font-size="14.00"> &#160;Bootstrap</text>
<polygon fill="#fdb462" stroke="transparent" points="310,-10 310,-30 330,-30 330,-10 310,-10"/>
<text text-anchor="start" x="333.67" y="-15.4" font-family="Times-12" font-size="14.00"> &#160;Providers</text>
<polygon fill="#fb8072" stroke="transparent" points="406,-10 406,-30 426,-30 426,-10 406,-10"/>
<text text-anchor="start" x="429.73" y="-15.4" font-family="Times-12" font-size="14.00"> &#160;Exports</text>
<g id="clust1" class="cluster">
<title>cluster_ViewNotificationModule</title>
<polygon fill="none" stroke="black" stroke-dasharray="1,5" points="29,-70 29,-268 467,-268 467,-70 29,-70"/>
</g>
<g id="clust2" class="cluster">
<title>cluster_ViewNotificationModule_declarations</title>
<polygon fill="none" stroke="black" points="263,-78 263,-130 459,-130 459,-78 263,-78"/>
</g>
<g id="clust4" class="cluster">
<title>cluster_ViewNotificationModule_imports</title>
<polygon fill="none" stroke="black" points="37,-78 37,-130 255,-130 255,-78 37,-78"/>
</g>
<g id="clust5" class="cluster">
<title>cluster_ViewNotificationModule_exports</title>
<polygon fill="none" stroke="black" points="154,-208 154,-260 352,-260 352,-208 154,-208"/>
</g>
<!-- ViewNotificationComponent -->
<g id="node1" class="node">
<title>ViewNotificationComponent</title>
<polygon fill="#ffffb3" stroke="black" points="450.8,-122 271.2,-122 271.2,-86 450.8,-86 450.8,-122"/>
<text text-anchor="middle" x="361" y="-99.8" font-family="Times,serif" font-size="14.00">ViewNotificationComponent</text>
</g>
<!-- ViewNotificationModule -->
<g id="node2" class="node">
<title>ViewNotificationModule</title>
<polygon fill="#8dd3c7" stroke="black" points="331.52,-187 328.52,-191 307.52,-191 304.52,-187 174.48,-187 174.48,-151 331.52,-151 331.52,-187"/>
<text text-anchor="middle" x="253" y="-164.8" font-family="Times,serif" font-size="14.00">ViewNotificationModule</text>
</g>
<!-- ViewNotificationComponent&#45;&gt;ViewNotificationModule -->
<g id="edge1" class="edge">
<title>ViewNotificationComponent&#45;&gt;ViewNotificationModule</title>
<path fill="none" stroke="black" d="M301.55,-122.11C301.55,-122.11 301.55,-140.99 301.55,-140.99"/>
<polygon fill="black" stroke="black" points="298.05,-140.99 301.55,-150.99 305.05,-140.99 298.05,-140.99"/>
</g>
<!-- ViewNotificationComponent  -->
<g id="node4" class="node">
<title>ViewNotificationComponent </title>
<polygon fill="#fb8072" stroke="black" points="344.3,-252 161.7,-252 161.7,-216 344.3,-216 344.3,-252"/>
<text text-anchor="middle" x="253" y="-229.8" font-family="Times,serif" font-size="14.00">ViewNotificationComponent </text>
</g>
<!-- ViewNotificationModule&#45;&gt;ViewNotificationComponent  -->
<g id="edge3" class="edge">
<title>ViewNotificationModule&#45;&gt;ViewNotificationComponent </title>
<path fill="none" stroke="black" stroke-dasharray="5,2" d="M253,-187.11C253,-187.11 253,-205.99 253,-205.99"/>
<polygon fill="black" stroke="black" points="249.5,-205.99 253,-215.99 256.5,-205.99 249.5,-205.99"/>
</g>
<!-- ViewNotificationRoutingModule -->
<g id="node3" class="node">
<title>ViewNotificationRoutingModule</title>
<polygon fill="#8dd3c7" stroke="black" points="247.14,-122 244.14,-126 223.14,-126 220.14,-122 44.86,-122 44.86,-86 247.14,-86 247.14,-122"/>
<text text-anchor="middle" x="146" y="-99.8" font-family="Times,serif" font-size="14.00">ViewNotificationRoutingModule</text>
</g>
<!-- ViewNotificationRoutingModule&#45;&gt;ViewNotificationModule -->
<g id="edge2" class="edge">
<title>ViewNotificationRoutingModule&#45;&gt;ViewNotificationModule</title>
<path fill="none" stroke="black" d="M210.78,-122.11C210.78,-122.11 210.78,-140.99 210.78,-140.99"/>
<polygon fill="black" stroke="black" points="207.28,-140.99 210.78,-150.99 214.28,-140.99 207.28,-140.99"/>
</g>
</g>
</svg>
