<?xml version="1.0" encoding="UTF-8" standalone="no"?>
<!DOCTYPE svg PUBLIC "-//W3C//DTD SVG 1.1//EN"
 "http://www.w3.org/Graphics/SVG/1.1/DTD/svg11.dtd">
<!-- Generated by graphviz version 2.47.0 (20210316.0004)
 -->
<!-- Title: dependencies Pages: 1 -->
<svg width="3847pt" height="360pt"
 viewBox="0.00 0.00 3847.00 360.00" xmlns="http://www.w3.org/2000/svg" xmlns:xlink="http://www.w3.org/1999/xlink">
<g id="graph0" class="graph" transform="scale(1 1) rotate(0) translate(4 356)">
<title>dependencies</title>
<polygon fill="white" stroke="transparent" points="-4,4 -4,-356 3843,-356 3843,4 -4,4"/>
<text text-anchor="start" x="1898.51" y="-42.4" font-family="Times-12" font-weight="bold" font-size="14.00">Legend</text>
<polygon fill="#ffffb3" stroke="transparent" points="1685.5,-10 1685.5,-30 1705.5,-30 1705.5,-10 1685.5,-10"/>
<text text-anchor="start" x="1709.13" y="-15.4" font-family="Times-12" font-size="14.00"> &#160;Declarations</text>
<polygon fill="#8dd3c7" stroke="transparent" points="1798.5,-10 1798.5,-30 1818.5,-30 1818.5,-10 1798.5,-10"/>
<text text-anchor="start" x="1822.23" y="-15.4" font-family="Times-12" font-size="14.00"> &#160;Module</text>
<polygon fill="#80b1d3" stroke="transparent" points="1884.5,-10 1884.5,-30 1904.5,-30 1904.5,-10 1884.5,-10"/>
<text text-anchor="start" x="1908.28" y="-15.4" font-family="Times-12" font-size="14.00"> &#160;Bootstrap</text>
<polygon fill="#fdb462" stroke="transparent" points="1981.5,-10 1981.5,-30 2001.5,-30 2001.5,-10 1981.5,-10"/>
<text text-anchor="start" x="2005.17" y="-15.4" font-family="Times-12" font-size="14.00"> &#160;Providers</text>
<polygon fill="#fb8072" stroke="transparent" points="2077.5,-10 2077.5,-30 2097.5,-30 2097.5,-10 2077.5,-10"/>
<text text-anchor="start" x="2101.23" y="-15.4" font-family="Times-12" font-size="14.00"> &#160;Exports</text>
<g id="clust1" class="cluster">
<title>cluster_AppModule</title>
<polygon fill="none" stroke="black" stroke-dasharray="1,5" points="2388,-70 2388,-344 3211,-344 3211,-70 2388,-70"/>
</g>
<g id="clust2" class="cluster">
<title>cluster_AppModule_declarations</title>
<polygon fill="none" stroke="black" points="3081,-154 3081,-206 3203,-206 3203,-154 3081,-154"/>
</g>
<g id="clust4" class="cluster">
<title>cluster_AppModule_imports</title>
<polygon fill="none" stroke="black" points="2396,-78 2396,-206 3019,-206 3019,-78 2396,-78"/>
</g>
<g id="clust6" class="cluster">
<title>cluster_AppModule_bootstrap</title>
<polygon fill="none" stroke="black" points="2925,-284 2925,-336 3049,-336 3049,-284 2925,-284"/>
</g>
<g id="clust20" class="cluster">
<title>cluster_LayoutModule</title>
<polygon fill="none" stroke="black" stroke-dasharray="1,5" points="3593,-70 3593,-206 3831,-206 3831,-70 3593,-70"/>
</g>
<g id="clust22" class="cluster">
<title>cluster_LayoutModule_imports</title>
<polygon fill="none" stroke="black" points="3601,-78 3601,-130 3823,-130 3823,-78 3601,-78"/>
</g>
<g id="clust32" class="cluster">
<title>cluster_SharedModule</title>
<polygon fill="none" stroke="black" stroke-dasharray="1,5" points="3219,-146 3219,-214 3585,-214 3585,-146 3219,-146"/>
</g>
<g id="clust35" class="cluster">
<title>cluster_SharedModule_exports</title>
<polygon fill="none" stroke="black" points="3227,-154 3227,-206 3577,-206 3577,-154 3227,-154"/>
</g>
<g id="clust44" class="cluster">
<title>cluster_ViewAuthModule</title>
<polygon fill="none" stroke="black" stroke-dasharray="1,5" points="8,-70 8,-138 534,-138 534,-70 8,-70"/>
</g>
<g id="clust45" class="cluster">
<title>cluster_ViewAuthModule_declarations</title>
<polygon fill="none" stroke="black" points="370,-78 370,-130 526,-130 526,-78 370,-78"/>
</g>
<g id="clust47" class="cluster">
<title>cluster_ViewAuthModule_imports</title>
<polygon fill="none" stroke="black" points="184,-78 184,-130 362,-130 362,-78 184,-78"/>
</g>
<g id="clust48" class="cluster">
<title>cluster_ViewAuthModule_exports</title>
<polygon fill="none" stroke="black" points="16,-78 16,-130 176,-130 176,-78 16,-78"/>
</g>
<g id="clust57" class="cluster">
<title>cluster_ViewMessagesModule</title>
<polygon fill="none" stroke="black" stroke-dasharray="1,5" points="542,-70 542,-138 1148,-138 1148,-70 542,-70"/>
</g>
<g id="clust58" class="cluster">
<title>cluster_ViewMessagesModule_declarations</title>
<polygon fill="none" stroke="black" points="958,-78 958,-130 1140,-130 1140,-78 958,-78"/>
</g>
<g id="clust60" class="cluster">
<title>cluster_ViewMessagesModule_imports</title>
<polygon fill="none" stroke="black" points="744,-78 744,-130 950,-130 950,-78 744,-78"/>
</g>
<g id="clust61" class="cluster">
<title>cluster_ViewMessagesModule_exports</title>
<polygon fill="none" stroke="black" points="550,-78 550,-130 736,-130 736,-78 550,-78"/>
</g>
<g id="clust70" class="cluster">
<title>cluster_ViewNotificationModule</title>
<polygon fill="none" stroke="black" stroke-dasharray="1,5" points="1156,-70 1156,-138 1800,-138 1800,-70 1156,-70"/>
</g>
<g id="clust71" class="cluster">
<title>cluster_ViewNotificationModule_declarations</title>
<polygon fill="none" stroke="black" points="1596,-78 1596,-130 1792,-130 1792,-78 1596,-78"/>
</g>
<g id="clust73" class="cluster">
<title>cluster_ViewNotificationModule_imports</title>
<polygon fill="none" stroke="black" points="1370,-78 1370,-130 1588,-130 1588,-78 1370,-78"/>
</g>
<g id="clust74" class="cluster">
<title>cluster_ViewNotificationModule_exports</title>
<polygon fill="none" stroke="black" points="1164,-78 1164,-130 1362,-130 1362,-78 1164,-78"/>
</g>
<g id="clust83" class="cluster">
<title>cluster_ViewProductModule</title>
<polygon fill="none" stroke="black" stroke-dasharray="1,5" points="1808,-70 1808,-138 2380,-138 2380,-70 1808,-70"/>
</g>
<g id="clust84" class="cluster">
<title>cluster_ViewProductModule_declarations</title>
<polygon fill="none" stroke="black" points="2200,-78 2200,-130 2372,-130 2372,-78 2200,-78"/>
</g>
<g id="clust86" class="cluster">
<title>cluster_ViewProductModule_imports</title>
<polygon fill="none" stroke="black" points="1998,-78 1998,-130 2192,-130 2192,-78 1998,-78"/>
</g>
<g id="clust87" class="cluster">
<title>cluster_ViewProductModule_exports</title>
<polygon fill="none" stroke="black" points="1816,-78 1816,-130 1990,-130 1990,-78 1816,-78"/>
</g>
<!-- AppComponent -->
<g id="node1" class="node">
<title>AppComponent</title>
<polygon fill="#ffffb3" stroke="black" points="3194.94,-198 3089.06,-198 3089.06,-162 3194.94,-162 3194.94,-198"/>
<text text-anchor="middle" x="3142" y="-175.8" font-family="Times,serif" font-size="14.00">AppComponent</text>
</g>
<!-- AppModule -->
<g id="node2" class="node">
<title>AppModule</title>
<polygon fill="#8dd3c7" stroke="black" points="3028.66,-263 3025.66,-267 3004.66,-267 3001.66,-263 2945.34,-263 2945.34,-227 3028.66,-227 3028.66,-263"/>
<text text-anchor="middle" x="2987" y="-240.8" font-family="Times,serif" font-size="14.00">AppModule</text>
</g>
<!-- AppComponent&#45;&gt;AppModule -->
<g id="edge1" class="edge">
<title>AppComponent&#45;&gt;AppModule</title>
<path fill="none" stroke="black" d="M3089.12,-180C3057.34,-180 3023.01,-180 3023.01,-180 3023.01,-180 3023.01,-216.89 3023.01,-216.89"/>
<polygon fill="black" stroke="black" points="3019.51,-216.89 3023.01,-226.89 3026.51,-216.89 3019.51,-216.89"/>
</g>
<!-- AppComponent  -->
<g id="node10" class="node">
<title>AppComponent </title>
<polygon fill="#80b1d3" stroke="black" points="3041.44,-328 2932.56,-328 2932.56,-292 3041.44,-292 3041.44,-328"/>
<text text-anchor="middle" x="2987" y="-305.8" font-family="Times,serif" font-size="14.00">AppComponent </text>
</g>
<!-- AppModule&#45;&gt;AppComponent  -->
<g id="edge9" class="edge">
<title>AppModule&#45;&gt;AppComponent </title>
<path fill="none" stroke="black" stroke-dasharray="1,5" d="M2987,-263.11C2987,-263.11 2987,-281.99 2987,-281.99"/>
<polygon fill="black" stroke="black" points="2983.5,-281.99 2987,-291.99 2990.5,-281.99 2983.5,-281.99"/>
</g>
<!-- AppRoutingModule -->
<g id="node3" class="node">
<title>AppRoutingModule</title>
<polygon fill="#8dd3c7" stroke="black" points="2906.27,-122 2903.27,-126 2882.27,-126 2879.27,-122 2777.73,-122 2777.73,-86 2906.27,-86 2906.27,-122"/>
<text text-anchor="middle" x="2842" y="-99.8" font-family="Times,serif" font-size="14.00">AppRoutingModule</text>
</g>
<!-- AppRoutingModule&#45;&gt;AppModule -->
<g id="edge2" class="edge">
<title>AppRoutingModule&#45;&gt;AppModule</title>
<path fill="none" stroke="black" d="M2868.53,-122.21C2868.53,-157.77 2868.53,-233 2868.53,-233 2868.53,-233 2935.23,-233 2935.23,-233"/>
<polygon fill="black" stroke="black" points="2935.23,-236.5 2945.23,-233 2935.23,-229.5 2935.23,-236.5"/>
</g>
<!-- CoreModule -->
<g id="node4" class="node">
<title>CoreModule</title>
<polygon fill="#8dd3c7" stroke="black" points="3011.26,-122 3008.26,-126 2987.26,-126 2984.26,-122 2924.74,-122 2924.74,-86 3011.26,-86 3011.26,-122"/>
<text text-anchor="middle" x="2968" y="-99.8" font-family="Times,serif" font-size="14.00">CoreModule</text>
</g>
<!-- CoreModule&#45;&gt;AppModule -->
<g id="edge3" class="edge">
<title>CoreModule&#45;&gt;AppModule</title>
<path fill="none" stroke="black" d="M3011.55,-104C3015.01,-104 3017.2,-104 3017.2,-104 3017.2,-104 3017.2,-216.86 3017.2,-216.86"/>
<polygon fill="black" stroke="black" points="3013.7,-216.86 3017.2,-226.86 3020.7,-216.86 3013.7,-216.86"/>
</g>
<!-- SharedModule -->
<g id="node5" class="node">
<title>SharedModule</title>
<polygon fill="#8dd3c7" stroke="black" points="2759.42,-122 2756.42,-126 2735.42,-126 2732.42,-122 2660.58,-122 2660.58,-86 2759.42,-86 2759.42,-122"/>
<text text-anchor="middle" x="2710" y="-99.8" font-family="Times,serif" font-size="14.00">SharedModule</text>
</g>
<!-- SharedModule&#45;&gt;AppModule -->
<g id="edge4" class="edge">
<title>SharedModule&#45;&gt;AppModule</title>
<path fill="none" stroke="black" d="M2693.19,-122.14C2693.19,-160.23 2693.19,-245 2693.19,-245 2693.19,-245 2935.22,-245 2935.22,-245"/>
<polygon fill="black" stroke="black" points="2935.22,-248.5 2945.22,-245 2935.22,-241.5 2935.22,-248.5"/>
</g>
<!-- ViewAuthModule -->
<g id="node6" class="node">
<title>ViewAuthModule</title>
<polygon fill="#8dd3c7" stroke="black" points="2521.87,-198 2518.87,-202 2497.87,-202 2494.87,-198 2404.13,-198 2404.13,-162 2521.87,-162 2521.87,-198"/>
<text text-anchor="middle" x="2463" y="-175.8" font-family="Times,serif" font-size="14.00">ViewAuthModule</text>
</g>
<!-- SharedModule&#45;&gt;ViewAuthModule -->
<g id="edge16" class="edge">
<title>SharedModule&#45;&gt;ViewAuthModule</title>
<path fill="none" stroke="black" d="M2660.61,-104C2588.53,-104 2463,-104 2463,-104 2463,-104 2463,-151.99 2463,-151.99"/>
<polygon fill="black" stroke="black" points="2459.5,-151.99 2463,-161.99 2466.5,-151.99 2459.5,-151.99"/>
</g>
<!-- ViewMessagesModule -->
<g id="node7" class="node">
<title>ViewMessagesModule</title>
<polygon fill="#8dd3c7" stroke="black" points="2684.29,-198 2681.29,-202 2660.29,-202 2657.29,-198 2539.71,-198 2539.71,-162 2684.29,-162 2684.29,-198"/>
<text text-anchor="middle" x="2612" y="-175.8" font-family="Times,serif" font-size="14.00">ViewMessagesModule</text>
</g>
<!-- SharedModule&#45;&gt;ViewMessagesModule -->
<g id="edge20" class="edge">
<title>SharedModule&#45;&gt;ViewMessagesModule</title>
<path fill="none" stroke="black" d="M2672.47,-122.01C2672.47,-122.01 2672.47,-151.85 2672.47,-151.85"/>
<polygon fill="black" stroke="black" points="2668.97,-151.85 2672.47,-161.85 2675.97,-151.85 2668.97,-151.85"/>
</g>
<!-- ViewNotificationModule -->
<g id="node8" class="node">
<title>ViewNotificationModule</title>
<polygon fill="#8dd3c7" stroke="black" points="2859.52,-198 2856.52,-202 2835.52,-202 2832.52,-198 2702.48,-198 2702.48,-162 2859.52,-162 2859.52,-198"/>
<text text-anchor="middle" x="2781" y="-175.8" font-family="Times,serif" font-size="14.00">ViewNotificationModule</text>
</g>
<!-- SharedModule&#45;&gt;ViewNotificationModule -->
<g id="edge24" class="edge">
<title>SharedModule&#45;&gt;ViewNotificationModule</title>
<path fill="none" stroke="black" d="M2727.56,-122.01C2727.56,-122.01 2727.56,-151.85 2727.56,-151.85"/>
<polygon fill="black" stroke="black" points="2724.06,-151.85 2727.56,-161.85 2731.06,-151.85 2724.06,-151.85"/>
</g>
<!-- ViewProductModule -->
<g id="node9" class="node">
<title>ViewProductModule</title>
<polygon fill="#8dd3c7" stroke="black" points="3010.92,-198 3007.92,-202 2986.92,-202 2983.92,-198 2877.08,-198 2877.08,-162 3010.92,-162 3010.92,-198"/>
<text text-anchor="middle" x="2944" y="-175.8" font-family="Times,serif" font-size="14.00">ViewProductModule</text>
</g>
<!-- SharedModule&#45;&gt;ViewProductModule -->
<g id="edge28" class="edge">
<title>SharedModule&#45;&gt;ViewProductModule</title>
<path fill="none" stroke="black" d="M2733.89,-122.14C2733.89,-128.46 2733.89,-134 2733.89,-134 2733.89,-134 2900.57,-134 2900.57,-134 2900.57,-134 2900.57,-151.82 2900.57,-151.82"/>
<polygon fill="black" stroke="black" points="2897.07,-151.82 2900.57,-161.82 2904.07,-151.82 2897.07,-151.82"/>
</g>
<!-- LayoutModule  -->
<g id="node14" class="node">
<title>LayoutModule </title>
<polygon fill="#fb8072" stroke="black" points="3569.21,-198 3466.79,-198 3466.79,-162 3569.21,-162 3569.21,-198"/>
<text text-anchor="middle" x="3518" y="-175.8" font-family="Times,serif" font-size="14.00">LayoutModule </text>
</g>
<!-- SharedModule&#45;&gt;LayoutModule  -->
<g id="edge12" class="edge">
<title>SharedModule&#45;&gt;LayoutModule </title>
<path fill="none" stroke="black" stroke-dasharray="5,2" d="M2752.88,-122.08C2752.88,-123.85 2752.88,-125 2752.88,-125 2752.88,-125 3518,-125 3518,-125 3518,-125 3518,-151.99 3518,-151.99"/>
<polygon fill="black" stroke="black" points="3514.5,-151.99 3518,-161.99 3521.5,-151.99 3514.5,-151.99"/>
</g>
<!-- NgImportModule  -->
<g id="node15" class="node">
<title>NgImportModule </title>
<polygon fill="#fb8072" stroke="black" points="3449.26,-198 3330.74,-198 3330.74,-162 3449.26,-162 3449.26,-198"/>
<text text-anchor="middle" x="3390" y="-175.8" font-family="Times,serif" font-size="14.00">NgImportModule </text>
</g>
<!-- SharedModule&#45;&gt;NgImportModule  -->
<g id="edge13" class="edge">
<title>SharedModule&#45;&gt;NgImportModule </title>
<path fill="none" stroke="black" stroke-dasharray="5,2" d="M2746.55,-122.19C2746.55,-125.54 2746.55,-128 2746.55,-128 2746.55,-128 3390,-128 3390,-128 3390,-128 3390,-151.81 3390,-151.81"/>
<polygon fill="black" stroke="black" points="3386.5,-151.81 3390,-161.81 3393.5,-151.81 3386.5,-151.81"/>
</g>
<!-- UiModule  -->
<g id="node16" class="node">
<title>UiModule </title>
<polygon fill="#fb8072" stroke="black" points="3312.55,-198 3235.45,-198 3235.45,-162 3312.55,-162 3312.55,-198"/>
<text text-anchor="middle" x="3274" y="-175.8" font-family="Times,serif" font-size="14.00">UiModule </text>
</g>
<!-- SharedModule&#45;&gt;UiModule  -->
<g id="edge14" class="edge">
<title>SharedModule&#45;&gt;UiModule </title>
<path fill="none" stroke="black" stroke-dasharray="5,2" d="M2740.22,-122.16C2740.22,-127.04 2740.22,-131 2740.22,-131 2740.22,-131 3274,-131 3274,-131 3274,-131 3274,-151.75 3274,-151.75"/>
<polygon fill="black" stroke="black" points="3270.5,-151.75 3274,-161.75 3277.5,-151.75 3270.5,-151.75"/>
</g>
<!-- ViewAuthModule&#45;&gt;AppModule -->
<g id="edge5" class="edge">
<title>ViewAuthModule&#45;&gt;AppModule</title>
<path fill="none" stroke="black" d="M2463,-198.25C2463,-221.02 2463,-257 2463,-257 2463,-257 2935,-257 2935,-257"/>
<polygon fill="black" stroke="black" points="2935,-260.5 2945,-257 2935,-253.5 2935,-260.5"/>
</g>
<!-- ViewAuthComponent  -->
<g id="node19" class="node">
<title>ViewAuthComponent </title>
<polygon fill="#fb8072" stroke="black" points="167.65,-122 24.35,-122 24.35,-86 167.65,-86 167.65,-122"/>
<text text-anchor="middle" x="96" y="-99.8" font-family="Times,serif" font-size="14.00">ViewAuthComponent </text>
</g>
<!-- ViewAuthModule&#45;&gt;ViewAuthComponent  -->
<g id="edge18" class="edge">
<title>ViewAuthModule&#45;&gt;ViewAuthComponent </title>
<path fill="none" stroke="black" stroke-dasharray="5,2" d="M2403.9,-189C2037.9,-189 96,-189 96,-189 96,-189 96,-132.03 96,-132.03"/>
<polygon fill="black" stroke="black" points="99.5,-132.03 96,-122.03 92.5,-132.03 99.5,-132.03"/>
</g>
<!-- ViewMessagesModule&#45;&gt;AppModule -->
<g id="edge6" class="edge">
<title>ViewMessagesModule&#45;&gt;AppModule</title>
<path fill="none" stroke="black" d="M2612,-198.28C2612,-219.32 2612,-251 2612,-251 2612,-251 2935.07,-251 2935.07,-251"/>
<polygon fill="black" stroke="black" points="2935.07,-254.5 2945.07,-251 2935.07,-247.5 2935.07,-254.5"/>
</g>
<!-- ViewMessagesComponent  -->
<g id="node22" class="node">
<title>ViewMessagesComponent </title>
<polygon fill="#fb8072" stroke="black" points="727.57,-122 558.43,-122 558.43,-86 727.57,-86 727.57,-122"/>
<text text-anchor="middle" x="643" y="-99.8" font-family="Times,serif" font-size="14.00">ViewMessagesComponent </text>
</g>
<!-- ViewMessagesModule&#45;&gt;ViewMessagesComponent  -->
<g id="edge22" class="edge">
<title>ViewMessagesModule&#45;&gt;ViewMessagesComponent </title>
<path fill="none" stroke="black" stroke-dasharray="5,2" d="M2570.09,-161.85C2570.09,-160.7 2570.09,-160 2570.09,-160 2570.09,-160 643,-160 643,-160 643,-160 643,-132.03 643,-132.03"/>
<polygon fill="black" stroke="black" points="646.5,-132.03 643,-122.03 639.5,-132.03 646.5,-132.03"/>
</g>
<!-- ViewNotificationModule&#45;&gt;AppModule -->
<g id="edge7" class="edge">
<title>ViewNotificationModule&#45;&gt;AppModule</title>
<path fill="none" stroke="black" d="M2781,-198.02C2781,-215.37 2781,-239 2781,-239 2781,-239 2935.31,-239 2935.31,-239"/>
<polygon fill="black" stroke="black" points="2935.31,-242.5 2945.31,-239 2935.31,-235.5 2935.31,-242.5"/>
</g>
<!-- ViewNotificationComponent  -->
<g id="node25" class="node">
<title>ViewNotificationComponent </title>
<polygon fill="#fb8072" stroke="black" points="1354.3,-122 1171.7,-122 1171.7,-86 1354.3,-86 1354.3,-122"/>
<text text-anchor="middle" x="1263" y="-99.8" font-family="Times,serif" font-size="14.00">ViewNotificationComponent </text>
</g>
<!-- ViewNotificationModule&#45;&gt;ViewNotificationComponent  -->
<g id="edge26" class="edge">
<title>ViewNotificationModule&#45;&gt;ViewNotificationComponent </title>
<path fill="none" stroke="black" stroke-dasharray="5,2" d="M2708.57,-161.8C2708.57,-155.97 2708.57,-151 2708.57,-151 2708.57,-151 1263,-151 1263,-151 1263,-151 1263,-132.04 1263,-132.04"/>
<polygon fill="black" stroke="black" points="1266.5,-132.04 1263,-122.04 1259.5,-132.04 1266.5,-132.04"/>
</g>
<!-- ViewProductModule&#45;&gt;AppModule -->
<g id="edge8" class="edge">
<title>ViewProductModule&#45;&gt;AppModule</title>
<path fill="none" stroke="black" d="M2977.94,-198.11C2977.94,-198.11 2977.94,-216.99 2977.94,-216.99"/>
<polygon fill="black" stroke="black" points="2974.44,-216.99 2977.94,-226.99 2981.44,-216.99 2974.44,-216.99"/>
</g>
<!-- ViewProductComponent  -->
<g id="node28" class="node">
<title>ViewProductComponent </title>
<polygon fill="#fb8072" stroke="black" points="1982.2,-122 1823.8,-122 1823.8,-86 1982.2,-86 1982.2,-122"/>
<text text-anchor="middle" x="1903" y="-99.8" font-family="Times,serif" font-size="14.00">ViewProductComponent </text>
</g>
<!-- ViewProductModule&#45;&gt;ViewProductComponent  -->
<g id="edge30" class="edge">
<title>ViewProductModule&#45;&gt;ViewProductComponent </title>
<path fill="none" stroke="black" stroke-dasharray="5,2" d="M2883.11,-161.89C2883.11,-152.1 2883.11,-142 2883.11,-142 2883.11,-142 1903,-142 1903,-142 1903,-142 1903,-132.11 1903,-132.11"/>
<polygon fill="black" stroke="black" points="1906.5,-132.11 1903,-122.11 1899.5,-132.11 1906.5,-132.11"/>
</g>
<!-- NgImportModule -->
<g id="node11" class="node">
<title>NgImportModule</title>
<polygon fill="#8dd3c7" stroke="black" points="3723.26,-122 3720.26,-126 3699.26,-126 3696.26,-122 3608.74,-122 3608.74,-86 3723.26,-86 3723.26,-122"/>
<text text-anchor="middle" x="3666" y="-99.8" font-family="Times,serif" font-size="14.00">NgImportModule</text>
</g>
<!-- LayoutModule -->
<g id="node13" class="node">
<title>LayoutModule</title>
<polygon fill="#8dd3c7" stroke="black" points="3768.71,-198 3765.71,-202 3744.71,-202 3741.71,-198 3669.29,-198 3669.29,-162 3768.71,-162 3768.71,-198"/>
<text text-anchor="middle" x="3719" y="-175.8" font-family="Times,serif" font-size="14.00">LayoutModule</text>
</g>
<!-- NgImportModule&#45;&gt;LayoutModule -->
<g id="edge10" class="edge">
<title>NgImportModule&#45;&gt;LayoutModule</title>
<path fill="none" stroke="black" d="M3696.39,-122.01C3696.39,-122.01 3696.39,-151.85 3696.39,-151.85"/>
<polygon fill="black" stroke="black" points="3692.89,-151.85 3696.39,-161.85 3699.89,-151.85 3692.89,-151.85"/>
</g>
<!-- UiModule -->
<g id="node12" class="node">
<title>UiModule</title>
<polygon fill="#8dd3c7" stroke="black" points="3814.55,-122 3811.55,-126 3790.55,-126 3787.55,-122 3741.45,-122 3741.45,-86 3814.55,-86 3814.55,-122"/>
<text text-anchor="middle" x="3778" y="-99.8" font-family="Times,serif" font-size="14.00">UiModule</text>
</g>
<!-- UiModule&#45;&gt;LayoutModule -->
<g id="edge11" class="edge">
<title>UiModule&#45;&gt;LayoutModule</title>
<path fill="none" stroke="black" d="M3754.92,-122.01C3754.92,-122.01 3754.92,-151.85 3754.92,-151.85"/>
<polygon fill="black" stroke="black" points="3751.42,-151.85 3754.92,-161.85 3758.42,-151.85 3751.42,-151.85"/>
</g>
<!-- ViewAuthComponent -->
<g id="node17" class="node">
<title>ViewAuthComponent</title>
<polygon fill="#ffffb3" stroke="black" points="517.65,-122 378.35,-122 378.35,-86 517.65,-86 517.65,-122"/>
<text text-anchor="middle" x="448" y="-99.8" font-family="Times,serif" font-size="14.00">ViewAuthComponent</text>
</g>
<!-- ViewAuthComponent&#45;&gt;ViewAuthModule -->
<g id="edge15" class="edge">
<title>ViewAuthComponent&#45;&gt;ViewAuthModule</title>
<path fill="none" stroke="black" d="M448,-122.31C448,-142.15 448,-171 448,-171 448,-171 2394.06,-171 2394.06,-171"/>
<polygon fill="black" stroke="black" points="2394.06,-174.5 2404.06,-171 2394.06,-167.5 2394.06,-174.5"/>
</g>
<!-- ViewAuthRoutingModule -->
<g id="node18" class="node">
<title>ViewAuthRoutingModule</title>
<polygon fill="#8dd3c7" stroke="black" points="354.48,-122 351.48,-126 330.48,-126 327.48,-122 191.52,-122 191.52,-86 354.48,-86 354.48,-122"/>
<text text-anchor="middle" x="273" y="-99.8" font-family="Times,serif" font-size="14.00">ViewAuthRoutingModule</text>
</g>
<!-- ViewAuthRoutingModule&#45;&gt;ViewAuthModule -->
<g id="edge17" class="edge">
<title>ViewAuthRoutingModule&#45;&gt;ViewAuthModule</title>
<path fill="none" stroke="black" d="M273,-122.01C273,-144.49 273,-180 273,-180 273,-180 2393.86,-180 2393.86,-180"/>
<polygon fill="black" stroke="black" points="2393.86,-183.5 2403.86,-180 2393.86,-176.5 2393.86,-183.5"/>
</g>
<!-- ViewMessagesComponent -->
<g id="node20" class="node">
<title>ViewMessagesComponent</title>
<polygon fill="#ffffb3" stroke="black" points="1132.07,-122 965.93,-122 965.93,-86 1132.07,-86 1132.07,-122"/>
<text text-anchor="middle" x="1049" y="-99.8" font-family="Times,serif" font-size="14.00">ViewMessagesComponent</text>
</g>
<!-- ViewMessagesComponent&#45;&gt;ViewMessagesModule -->
<g id="edge19" class="edge">
<title>ViewMessagesComponent&#45;&gt;ViewMessagesModule</title>
<path fill="none" stroke="black" d="M1049,-122.05C1049,-136.37 1049,-154 1049,-154 1049,-154 2630.56,-154 2630.56,-154 2630.56,-154 2630.56,-154.79 2630.56,-154.79"/>
<polygon fill="black" stroke="black" points="2627.06,-151.94 2630.56,-161.94 2634.06,-151.94 2627.06,-151.94"/>
</g>
<!-- ViewMessagesRoutingModule -->
<g id="node21" class="node">
<title>ViewMessagesRoutingModule</title>
<polygon fill="#8dd3c7" stroke="black" points="941.91,-122 938.91,-126 917.91,-126 914.91,-122 752.09,-122 752.09,-86 941.91,-86 941.91,-122"/>
<text text-anchor="middle" x="847" y="-99.8" font-family="Times,serif" font-size="14.00">ViewMessagesRoutingModule</text>
</g>
<!-- ViewMessagesRoutingModule&#45;&gt;ViewMessagesModule -->
<g id="edge21" class="edge">
<title>ViewMessagesRoutingModule&#45;&gt;ViewMessagesModule</title>
<path fill="none" stroke="black" d="M847,-122.24C847,-137.57 847,-157 847,-157 847,-157 2600.32,-157 2600.32,-157 2600.32,-157 2600.32,-157.49 2600.32,-157.49"/>
<polygon fill="black" stroke="black" points="2596.82,-151.88 2600.32,-161.88 2603.82,-151.88 2596.82,-151.88"/>
</g>
<!-- ViewNotificationComponent -->
<g id="node23" class="node">
<title>ViewNotificationComponent</title>
<polygon fill="#ffffb3" stroke="black" points="1783.8,-122 1604.2,-122 1604.2,-86 1783.8,-86 1783.8,-122"/>
<text text-anchor="middle" x="1694" y="-99.8" font-family="Times,serif" font-size="14.00">ViewNotificationComponent</text>
</g>
<!-- ViewNotificationComponent&#45;&gt;ViewNotificationModule -->
<g id="edge23" class="edge">
<title>ViewNotificationComponent&#45;&gt;ViewNotificationModule</title>
<path fill="none" stroke="black" d="M1694,-122.1C1694,-133.09 1694,-145 1694,-145 1694,-145 2721.23,-145 2721.23,-145 2721.23,-145 2721.23,-151.68 2721.23,-151.68"/>
<polygon fill="black" stroke="black" points="2717.73,-151.68 2721.23,-161.68 2724.73,-151.68 2717.73,-151.68"/>
</g>
<!-- ViewNotificationRoutingModule -->
<g id="node24" class="node">
<title>ViewNotificationRoutingModule</title>
<polygon fill="#8dd3c7" stroke="black" points="1580.14,-122 1577.14,-126 1556.14,-126 1553.14,-122 1377.86,-122 1377.86,-86 1580.14,-86 1580.14,-122"/>
<text text-anchor="middle" x="1479" y="-99.8" font-family="Times,serif" font-size="14.00">ViewNotificationRoutingModule</text>
</g>
<!-- ViewNotificationRoutingModule&#45;&gt;ViewNotificationModule -->
<g id="edge25" class="edge">
<title>ViewNotificationRoutingModule&#45;&gt;ViewNotificationModule</title>
<path fill="none" stroke="black" d="M1479,-122.15C1479,-134.27 1479,-148 1479,-148 1479,-148 2714.9,-148 2714.9,-148 2714.9,-148 2714.9,-151.76 2714.9,-151.76"/>
<polygon fill="black" stroke="black" points="2711.4,-151.76 2714.9,-161.76 2718.4,-151.76 2711.4,-151.76"/>
</g>
<!-- ViewProductComponent -->
<g id="node26" class="node">
<title>ViewProductComponent</title>
<polygon fill="#ffffb3" stroke="black" points="2363.7,-122 2208.3,-122 2208.3,-86 2363.7,-86 2363.7,-122"/>
<text text-anchor="middle" x="2286" y="-99.8" font-family="Times,serif" font-size="14.00">ViewProductComponent</text>
</g>
<!-- ViewProductComponent&#45;&gt;ViewProductModule -->
<g id="edge27" class="edge">
<title>ViewProductComponent&#45;&gt;ViewProductModule</title>
<path fill="none" stroke="black" d="M2286,-122.04C2286,-129.75 2286,-137 2286,-137 2286,-137 2894.75,-137 2894.75,-137 2894.75,-137 2894.75,-151.51 2894.75,-151.51"/>
<polygon fill="black" stroke="black" points="2891.25,-151.51 2894.75,-161.51 2898.25,-151.51 2891.25,-151.51"/>
</g>
<!-- ViewProductRoutingModule -->
<g id="node27" class="node">
<title>ViewProductRoutingModule</title>
<polygon fill="#8dd3c7" stroke="black" points="2184.04,-122 2181.04,-126 2160.04,-126 2157.04,-122 2005.96,-122 2005.96,-86 2184.04,-86 2184.04,-122"/>
<text text-anchor="middle" x="2095" y="-99.8" font-family="Times,serif" font-size="14.00">ViewProductRoutingModule</text>
</g>
<!-- ViewProductRoutingModule&#45;&gt;ViewProductModule -->
<g id="edge29" class="edge">
<title>ViewProductRoutingModule&#45;&gt;ViewProductModule</title>
<path fill="none" stroke="black" d="M2095,-122.42C2095,-131.28 2095,-140 2095,-140 2095,-140 2888.93,-140 2888.93,-140 2888.93,-140 2888.93,-151.87 2888.93,-151.87"/>
<polygon fill="black" stroke="black" points="2885.43,-151.87 2888.93,-161.87 2892.43,-151.87 2885.43,-151.87"/>
</g>
</g>
</svg>
